<svg width="165" height="34" viewBox="0 0 165 34" fill="none" xmlns="http://www.w3.org/2000/svg">
<path d="M11.4783 18.232H6.42225V27H3.86225V5.88H11.8623C14.0169 5.88 15.7449 6.43467 17.0463 7.544C18.3476 8.65333 18.9983 10.1573 18.9983 12.056C18.9983 13.5493 18.5823 14.808 17.7503 15.832C16.9183 16.856 15.7769 17.56 14.3263 17.944L20.2783 27H17.2383L11.4783 18.232ZM6.42225 15.832H11.8303C14.8169 15.832 16.3103 14.5733 16.3103 12.056C16.3103 9.53867 14.8169 8.28 11.8303 8.28H6.42225V15.832ZM37.8603 18.168C37.8603 18.7653 37.8176 19.3627 37.7323 19.96H25.6683C25.8176 21.5813 26.3509 22.84 27.2683 23.736C28.2069 24.632 29.4123 25.08 30.8843 25.08C32.0576 25.08 33.0283 24.8773 33.7963 24.472C34.5856 24.0667 35.1189 23.48 35.3963 22.712L37.5403 23.832C36.9003 24.9627 36.0469 25.8267 34.9803 26.424C33.9136 27.0213 32.5483 27.32 30.8843 27.32C28.4736 27.32 26.5749 26.584 25.1883 25.112C23.8229 23.64 23.1403 21.6027 23.1403 19C23.1403 16.3973 23.7909 14.36 25.0923 12.888C26.4149 11.416 28.2816 10.68 30.6923 10.68C32.1856 10.68 33.4763 11.0107 34.5643 11.672C35.6523 12.3333 36.4736 13.2293 37.0283 14.36C37.5829 15.4907 37.8603 16.76 37.8603 18.168ZM30.6923 12.92C29.2843 12.92 28.1429 13.336 27.2683 14.168C26.4149 15 25.8923 16.1733 25.7003 17.688H35.3963C35.2256 16.1947 34.7349 15.032 33.9243 14.2C33.1136 13.3467 32.0363 12.92 30.6923 12.92ZM45.158 22.712C45.158 23.5227 45.2753 24.088 45.51 24.408C45.766 24.7067 46.2247 24.856 46.886 24.856C47.334 24.856 47.718 24.824 48.038 24.76C48.3793 24.696 48.774 24.5787 49.222 24.408L48.806 26.872C48.102 27.1707 47.3127 27.32 46.438 27.32C45.1367 27.32 44.166 26.968 43.526 26.264C42.9073 25.56 42.598 24.4827 42.598 23.032V3.64H45.158V22.712ZM53.7873 7.928C53.2113 7.928 52.7419 7.75733 52.3793 7.416C52.0379 7.05333 51.8673 6.584 51.8673 6.008C51.8673 5.432 52.0379 4.97333 52.3793 4.632C52.7419 4.26933 53.2113 4.088 53.7873 4.088C54.3633 4.088 54.8219 4.26933 55.1633 4.632C55.5259 4.97333 55.7073 5.432 55.7073 6.008C55.7073 6.584 55.5259 7.05333 55.1633 7.416C54.8219 7.75733 54.3633 7.928 53.7873 7.928ZM55.0673 27H52.5073V11H55.0673V27ZM74.7353 18.168C74.7353 18.7653 74.6926 19.3627 74.6073 19.96H62.5433C62.6926 21.5813 63.2259 22.84 64.1433 23.736C65.0819 24.632 66.2873 25.08 67.7593 25.08C68.9326 25.08 69.9033 24.8773 70.6713 24.472C71.4606 24.0667 71.9939 23.48 72.2713 22.712L74.4153 23.832C73.7753 24.9627 72.9219 25.8267 71.8553 26.424C70.7886 27.0213 69.4233 27.32 67.7593 27.32C65.3486 27.32 63.4499 26.584 62.0633 25.112C60.6979 23.64 60.0153 21.6027 60.0153 19C60.0153 16.3973 60.6659 14.36 61.9673 12.888C63.2899 11.416 65.1566 10.68 67.5673 10.68C69.0606 10.68 70.3513 11.0107 71.4393 11.672C72.5273 12.3333 73.3486 13.2293 73.9033 14.36C74.4579 15.4907 74.7353 16.76 74.7353 18.168ZM67.5673 12.92C66.1593 12.92 65.0179 13.336 64.1433 14.168C63.2899 15 62.7673 16.1733 62.5753 17.688H72.2713C72.1006 16.1947 71.6099 15.032 70.7993 14.2C69.9886 13.3467 68.9113 12.92 67.5673 12.92ZM83.2528 11H88.5968V13.208H83.2528V27H80.6927V13.208H77.4928V11H80.6927V8.312C80.6927 6.84 81.1408 5.66667 82.0368 4.792C82.9328 3.91733 84.2341 3.48 85.9408 3.48C86.5168 3.48 87.0394 3.544 87.5088 3.672C87.9994 3.8 88.3834 3.98133 88.6608 4.216L87.9888 6.296C87.4768 5.976 86.8688 5.816 86.1648 5.816C84.2234 5.816 83.2528 6.73333 83.2528 8.568V11ZM102.953 21.144H93.385L91.145 27H88.457L96.681 5.88H99.721L107.913 27H105.193L102.953 21.144ZM102.025 18.744L99.177 11.256L98.185 8.312H98.121L97.193 11.16L94.313 18.744H102.025ZM120.654 24.952C122.169 24.952 123.353 25.2933 124.206 25.976C125.059 26.6587 125.486 27.5867 125.486 28.76C125.486 29.784 125.134 30.68 124.43 31.448C123.726 32.2373 122.766 32.8347 121.55 33.24C120.355 33.6667 119.033 33.88 117.582 33.88C115.15 33.88 113.315 33.4853 112.078 32.696C110.841 31.928 110.222 30.9147 110.222 29.656C110.222 28.9307 110.467 28.2907 110.958 27.736C111.47 27.1813 112.163 26.7867 113.038 26.552C112.377 26.232 111.843 25.8267 111.438 25.336C111.054 24.8453 110.862 24.2693 110.862 23.608C110.862 22.8187 111.075 22.168 111.502 21.656C111.929 21.1227 112.515 20.728 113.262 20.472C112.494 20.0027 111.907 19.3947 111.502 18.648C111.118 17.88 110.926 17.0267 110.926 16.088C110.926 15.0427 111.203 14.1147 111.758 13.304C112.313 12.472 113.091 11.832 114.094 11.384C115.097 10.9147 116.227 10.68 117.486 10.68C118.681 10.68 119.769 10.8933 120.75 11.32C121.347 9.144 122.851 8.056 125.262 8.056L125.838 10.296C123.747 10.296 122.478 10.8827 122.03 12.056C122.67 12.5467 123.161 13.1333 123.502 13.816C123.865 14.4987 124.046 15.256 124.046 16.088C124.046 17.1333 123.769 18.072 123.214 18.904C122.659 19.7147 121.881 20.3547 120.878 20.824C119.875 21.272 118.745 21.496 117.486 21.496C116.547 21.496 115.726 21.4 115.022 21.208C114.382 21.3573 113.923 21.592 113.646 21.912C113.369 22.232 113.23 22.6693 113.23 23.224C113.23 23.7787 113.422 24.2053 113.806 24.504C114.19 24.8027 114.702 24.952 115.342 24.952H120.654ZM117.486 12.76C116.377 12.76 115.449 13.0693 114.702 13.688C113.955 14.3067 113.582 15.1067 113.582 16.088C113.582 17.0693 113.955 17.8693 114.702 18.488C115.449 19.1067 116.377 19.416 117.486 19.416C118.595 19.416 119.523 19.1067 120.27 18.488C121.017 17.8693 121.39 17.0693 121.39 16.088C121.39 15.1067 121.017 14.3067 120.27 13.688C119.523 13.0693 118.595 12.76 117.486 12.76ZM117.87 31.736C119.491 31.736 120.771 31.4693 121.71 30.936C122.649 30.424 123.118 29.7947 123.118 29.048C123.118 28.4293 122.873 27.96 122.382 27.64C121.913 27.32 121.102 27.16 119.95 27.16H115.662C114.681 27.16 113.923 27.3307 113.39 27.672C112.857 28.0347 112.59 28.5253 112.59 29.144C112.59 29.9547 113.038 30.584 113.934 31.032C114.83 31.5013 116.142 31.736 117.87 31.736ZM142.409 25.144C142.835 25.144 143.262 25.0907 143.689 24.984L143.529 27C142.931 27.2133 142.291 27.32 141.609 27.32C140.777 27.32 140.115 27.1387 139.625 26.776C139.155 26.4133 138.857 25.8053 138.729 24.952C138.238 25.6987 137.513 26.2853 136.553 26.712C135.614 27.1173 134.622 27.32 133.577 27.32C131.998 27.32 130.697 26.9573 129.673 26.232C128.649 25.4853 128.137 24.4187 128.137 23.032C128.137 21.816 128.67 20.7707 129.737 19.896C130.803 19 132.35 18.3813 134.377 18.04L138.633 17.336V16.44C138.633 15.3733 138.302 14.52 137.641 13.88C136.979 13.24 136.062 12.92 134.889 12.92C133.822 12.92 132.894 13.176 132.105 13.688C131.337 14.2 130.739 14.9573 130.312 15.96L128.424 14.584C128.851 13.3893 129.641 12.44 130.793 11.736C131.966 11.032 133.331 10.68 134.889 10.68C136.787 10.68 138.313 11.1387 139.465 12.056C140.617 12.9733 141.193 14.328 141.193 16.12V23.992C141.193 24.376 141.289 24.664 141.481 24.856C141.673 25.048 141.982 25.144 142.409 25.144ZM133.705 25.08C135.049 25.08 136.201 24.76 137.161 24.12C138.142 23.48 138.633 22.648 138.633 21.624V19.416L135.049 20.088C133.619 20.344 132.553 20.7173 131.849 21.208C131.145 21.6773 130.793 22.2853 130.793 23.032C130.793 23.6933 131.049 24.2053 131.561 24.568C132.073 24.9093 132.787 25.08 133.705 25.08ZM161.622 3.64V27H159.382L159.222 24.216C158.752 25.1547 158.027 25.912 157.046 26.488C156.086 27.0427 154.987 27.32 153.75 27.32C151.51 27.32 149.728 26.584 148.406 25.112C147.104 23.6187 146.454 21.5813 146.454 19C146.454 16.4187 147.104 14.392 148.406 12.92C149.728 11.4267 151.51 10.68 153.75 10.68C154.923 10.68 155.968 10.936 156.886 11.448C157.824 11.96 158.55 12.6427 159.062 13.496V3.64H161.622ZM154.038 25.08C155.574 25.08 156.79 24.5467 157.686 23.48C158.603 22.4133 159.062 20.984 159.062 19.192V18.808C159.062 17.016 158.603 15.5867 157.686 14.52C156.79 13.4533 155.574 12.92 154.038 12.92C152.48 12.92 151.254 13.4747 150.358 14.584C149.462 15.672 149.014 17.144 149.014 19C149.014 20.856 149.462 22.3387 150.358 23.448C151.254 24.536 152.48 25.08 154.038 25.08Z" fill="white"/>
</svg>
