<svg width="24" height="24" viewBox="0 0 24 24" fill="none" xmlns="http://www.w3.org/2000/svg">
<path d="M6.50043 19.2034C7.03904 19.6507 7.85682 19.9779 9.044 19.8496C9.04558 20.0909 9.04735 20.3023 9.04882 20.4783C9.05062 20.6931 9.05197 20.8552 9.052 20.9548C9.0382 20.9554 9.01859 20.955 8.99236 20.9517C5.24655 19.6863 2.552 16.144 2.552 11.974C2.552 6.74114 6.79314 2.5 12.026 2.5C17.2589 2.5 21.5 6.74114 21.5 11.974C21.5 16.1443 18.8068 19.6845 15.0611 20.9508C15.0331 20.9549 15.012 20.9558 14.997 20.9555C14.997 20.8485 14.9983 20.6621 15 20.4113C15.0009 20.281 15.002 20.1333 15.003 19.9703C15.006 19.4931 15.009 18.8895 15.009 18.221C15.009 17.6396 14.8968 17.1462 14.7131 16.7503C15.609 16.5802 16.5194 16.2659 17.2643 15.6421C18.2647 14.8042 18.886 13.4786 18.886 11.453C18.886 10.3513 18.5307 9.41812 17.9267 8.66796C18.0721 8.1526 18.2117 7.17183 17.7277 5.95341L17.6408 5.73457L17.4167 5.6622L17.263 6.138C17.4167 5.6622 17.4162 5.66204 17.4157 5.66189L17.4147 5.66157L17.4127 5.66092L17.4083 5.65958L17.3987 5.65673C17.3918 5.65475 17.3841 5.65265 17.3755 5.65048C17.3582 5.64613 17.3375 5.64151 17.3133 5.63708C17.2648 5.62821 17.2026 5.62017 17.1263 5.61655C16.9735 5.60928 16.7669 5.61986 16.504 5.67504C16.0131 5.77808 15.3297 6.03571 14.4308 6.6189C13.6443 6.42374 12.8367 6.32432 12.0258 6.323L12.024 6.323C11.2132 6.32463 10.4058 6.42407 9.61927 6.61897C8.72075 6.03617 8.03735 5.77858 7.54644 5.67543C7.28356 5.6202 7.07699 5.60952 6.92419 5.61667C6.84795 5.62024 6.78575 5.62821 6.73728 5.63702C6.71307 5.64142 6.69238 5.64601 6.67516 5.65033C6.66655 5.65249 6.65882 5.65458 6.65196 5.65655L6.64233 5.65938L6.63801 5.66071L6.63597 5.66136L6.63498 5.66167C6.6345 5.66183 6.63402 5.66198 6.787 6.138L6.63402 5.66198L6.40941 5.73416L6.32232 5.95341C5.83726 7.17452 5.98082 8.15615 6.12445 8.66799C5.52454 9.41694 5.164 10.3504 5.164 11.453C5.164 13.4739 5.78491 14.7996 6.78266 15.6399C7.52669 16.2666 8.43618 16.5843 9.33083 16.7568C9.2478 16.9362 9.1795 17.1356 9.12971 17.3539C8.89299 17.4343 8.59209 17.499 8.28606 17.4716C7.90045 17.4371 7.46382 17.2552 7.10297 16.6396L7.10293 16.6396L7.0951 16.6259C7.08879 16.615 7.08026 16.6007 7.06953 16.5834C7.04811 16.5488 7.01769 16.502 6.9783 16.4468C6.89999 16.337 6.78366 16.1907 6.62898 16.041C6.32298 15.7448 5.83626 15.4073 5.17685 15.3612L5.16303 15.3603L5.14919 15.3601L5.142 15.86C5.14919 15.3601 5.14903 15.36 5.14887 15.36L5.14853 15.36L5.14778 15.36L5.146 15.36L5.14133 15.36L5.12777 15.36C5.11697 15.3601 5.10256 15.3603 5.08531 15.3609C5.05128 15.362 5.00395 15.3646 4.95011 15.3704C4.86233 15.3799 4.68131 15.4049 4.52163 15.4954C4.43648 15.5436 4.3112 15.6364 4.23914 15.8009C4.16022 15.9811 4.18176 16.1617 4.24089 16.3027C4.33823 16.5348 4.56038 16.7201 4.79073 16.8777L4.82414 16.9006L4.85345 16.9143C4.85406 16.9146 4.85477 16.915 4.85561 16.9155C4.86272 16.9195 4.87814 16.9286 4.90034 16.9438C4.94466 16.9741 5.01632 17.0287 5.10305 17.1157C5.27373 17.2867 5.5097 17.5897 5.70934 18.0934C5.7112 18.099 5.71336 18.1052 5.71583 18.1122C5.72353 18.134 5.73428 18.1627 5.74853 18.1972C5.77698 18.266 5.81973 18.3586 5.88052 18.4653C6.00175 18.678 6.19795 18.9522 6.50043 19.2034Z" fill="#E6E6E6" stroke="#E6E6E6"/>
</svg>
