<svg width="24" height="24" viewBox="0 0 24 24" fill="none" xmlns="http://www.w3.org/2000/svg">
<path d="M6.671 5.00898C6.671 5.94124 5.91525 6.69698 4.983 6.69698C4.05074 6.69698 3.295 5.94124 3.295 5.00898C3.295 4.07673 4.05074 3.32098 4.983 3.32098C5.91525 3.32098 6.671 4.07673 6.671 5.00898Z" fill="#E6E6E6" stroke="#E6E6E6"/>
<path d="M20.5 14.338V20.495H17.729V15.091V15.0878C17.729 14.4071 17.729 13.5031 17.44 12.7708C17.2895 12.3896 17.0522 12.0294 16.6778 11.768C16.3024 11.5059 15.832 11.373 15.268 11.373C14.712 11.373 14.2375 11.4818 13.8436 11.7001C13.4468 11.92 13.1619 12.2345 12.9624 12.5969C12.5766 13.2981 12.506 14.1902 12.506 14.991V20.494H9.737V9.35499H12.355V10.515V11.015H12.855H12.906H13.2075L13.3482 10.7484C13.7688 9.95155 14.8331 9.05499 16.474 9.05499C18.262 9.05499 19.2084 9.63203 19.7473 10.4869C20.3196 11.3947 20.5 12.7138 20.5 14.338ZM3.595 9.35499H6.37V20.494H3.595V9.35499Z" fill="#E6E6E6" stroke="#E6E6E6"/>
</svg>
