<svg width="24" height="24" viewBox="0 0 24 24" fill="none" xmlns="http://www.w3.org/2000/svg">
<path d="M7.34582 16.9471C6.0738 17.7621 4.59415 18.2061 3.07461 18.2216L7.34582 16.9471ZM7.34582 16.9471C7.54988 16.979 7.75671 16.9971 7.96495 17.0009L7.974 16.501M7.34582 16.9471L7.974 16.501M7.974 16.501L7.66536 16.1076C7.5261 16.2169 7.38344 16.3209 7.23767 16.4197M7.974 16.501L7.23767 16.4197M7.23767 16.4197C6.66351 16.3021 6.11878 16.0603 5.64324 15.7077C5.1223 15.3215 4.70443 14.8172 4.42182 14.2396L7.23767 16.4197ZM19.3375 7.59368L19.1138 7.75756L19.1344 8.03402C19.1458 8.18749 19.146 8.343 19.146 8.51998C19.146 13.6299 15.2595 19.481 8.186 19.481C6.70526 19.481 5.29692 19.1903 4.01202 18.6612C5.5639 18.4752 7.04259 17.8673 8.28264 16.8944L9.38872 16.0265L7.98305 16.0011C7.2466 15.9877 6.53271 15.7448 5.94103 15.3061C5.56148 15.0247 5.24438 14.6717 5.00594 14.2698C5.39918 14.2664 5.79065 14.2109 6.15398 14.1171L6.12796 13.1429C5.32898 12.9816 4.61054 12.5485 4.0948 11.9173C3.73813 11.4808 3.49362 10.9682 3.37711 10.4239C3.76395 10.5487 4.17499 10.6245 4.60007 10.6406L6.37552 10.7079L4.89573 9.72454C4.41155 9.4028 4.01454 8.96622 3.74012 8.45374C3.4657 7.94126 3.3224 7.36883 3.323 6.7875V6.78698C3.323 6.39197 3.38598 6.01769 3.50274 5.66809C4.45988 6.6979 5.59264 7.55242 6.85007 8.19052C8.34335 8.9483 9.97914 9.38398 11.6515 9.46933L12.2976 9.50231L12.1667 8.86879C12.1102 8.59558 12.077 8.31893 12.077 8.04698V8.04673C12.0768 7.5834 12.1679 7.12456 12.3451 6.69645C12.5223 6.26834 12.7821 5.87935 13.1097 5.55172C13.4374 5.2241 13.8264 4.96425 14.2545 4.78705C14.6826 4.60984 15.1414 4.51875 15.6048 4.51898H15.605C16.6224 4.51898 17.5386 4.94455 18.183 5.63274L18.3718 5.83432L18.6429 5.78189C19.0688 5.69953 19.4869 5.58469 19.8937 5.43871C19.6587 5.69961 19.3841 5.92589 19.0775 6.10821L19.3897 7.03476C19.6448 7.00566 19.8983 6.96513 20.1493 6.91339C19.8941 7.15712 19.623 7.38442 19.3375 7.59368ZM2.973 18.722V18.222L21.0699 6.66956C20.6434 7.1642 20.1615 7.60969 19.633 7.99698C19.646 8.17198 19.646 8.34598 19.646 8.51998C19.646 13.845 15.593 19.981 8.186 19.981C6.29785 19.981 4.5206 19.5285 2.95283 18.722C2.95941 18.722 2.966 18.722 2.97259 18.722C2.97273 18.722 2.97286 18.722 2.973 18.722Z" fill="#E6E6E6" stroke="#E6E6E6"/>
</svg>
