<svg width="24" height="24" viewBox="0 0 24 24" fill="none" xmlns="http://www.w3.org/2000/svg">
<path d="M17.24 19.899H17.74V19.399V15.095H18.34V20.5H4.881V15.095H5.479V19.399V19.899H5.979H17.24ZM18.4095 9.72361L14.2036 4.07194L14.7093 3.69813L18.9183 9.34737L18.4095 9.72361ZM11.9169 6.26661L17.3111 10.7661L16.935 11.2154L11.5401 6.71648L11.9169 6.26661ZM9.71475 9.56668L16.0907 12.5432L15.8331 13.0989L9.45556 10.1225L9.71475 9.56668ZM15.3795 14.6352L15.2535 15.2104L8.37279 13.7736L8.49811 13.1978L15.3795 14.6352ZM8.082 16.696H15.137V17.3H8.082V16.696Z" fill="#E6E6E6" stroke="#E6E6E6"/>
</svg>
