<svg width="24" height="24" viewBox="0 0 24 24" fill="none" xmlns="http://www.w3.org/2000/svg">
<path d="M9.08289 9.08491C9.85629 8.31151 10.9052 7.87701 11.999 7.87701C13.0928 7.87701 14.1417 8.31151 14.9151 9.08491C15.6885 9.85831 16.123 10.9073 16.123 12.001C16.123 13.0948 15.6885 14.1437 14.9151 14.9171C14.1417 15.6905 13.0928 16.125 11.999 16.125C10.9052 16.125 9.85629 15.6905 9.08289 14.9171C8.30949 14.1437 7.875 13.0948 7.875 12.001C7.875 10.9073 8.30949 9.85831 9.08289 9.08491ZM9.5213 14.4777C10.1784 15.1348 11.0697 15.504 11.999 15.504C12.9283 15.504 13.8196 15.1348 14.4767 14.4777C15.1338 13.8206 15.503 12.9293 15.503 12C15.503 11.0707 15.1338 10.1794 14.4767 9.52231C13.8196 8.86519 12.9283 8.49601 11.999 8.49601C11.0697 8.49601 10.1784 8.86519 9.5213 9.52231C8.86417 10.1794 8.495 11.0707 8.495 12C8.495 12.9293 8.86417 13.8206 9.5213 14.4777Z" fill="#E6E6E6" stroke="#E6E6E6"/>
<path d="M17.384 7.20703C17.384 7.52625 17.1252 7.78503 16.806 7.78503C16.4868 7.78503 16.228 7.52625 16.228 7.20703C16.228 6.88781 16.4868 6.62903 16.806 6.62903C17.1252 6.62903 17.384 6.88781 17.384 7.20703Z" fill="#E6E6E6" stroke="#E6E6E6"/>
<path d="M15.6922 3.55853L15.6922 3.55866L15.7037 3.5589C16.3935 3.57306 17.0759 3.70403 17.7219 3.94622C18.254 4.1524 18.7373 4.46725 19.1408 4.87068C19.5444 5.27413 19.8595 5.75729 20.0659 6.28931C20.312 6.94402 20.4433 7.6363 20.4541 8.33569L20.4542 8.34646L20.4549 8.35721C20.5098 9.29697 20.51 9.59188 20.51 12.038C20.51 14.4774 20.497 14.7742 20.4545 15.7257L20.4543 15.7257L20.4541 15.738C20.4402 16.4287 20.3102 17.1097 20.0679 17.7556C19.8612 18.2876 19.546 18.7708 19.1424 19.1744C18.7389 19.578 18.2558 19.8931 17.7238 20.0998C17.0778 20.3415 16.3955 20.4721 15.7058 20.4861L15.6965 20.4863L15.6873 20.4868C14.7492 20.5409 14.4511 20.541 12.006 20.541C9.568 20.541 9.27073 20.528 8.31817 20.4865L8.31778 20.4865L8.31779 20.4865L8.31243 20.4863C7.62066 20.4635 6.93784 20.3229 6.29337 20.0704L6.29147 20.0697C5.75839 19.8634 5.2742 19.5481 4.86985 19.1441C4.46616 18.7407 4.1509 18.2577 3.94416 17.7258C3.70175 17.0787 3.57175 16.3977 3.5579 15.707L3.55771 15.6974L3.55715 15.6878C3.50215 14.748 3.502 14.4521 3.502 12.007C3.502 9.56762 3.51497 9.27086 3.5575 8.31933L3.55766 8.31934L3.5579 8.30678C3.57139 7.61717 3.70203 6.93488 3.94422 6.28907C4.15033 5.75699 4.46525 5.27377 4.86882 4.87035C5.27249 4.46684 5.75596 4.15206 6.28827 3.94615C6.93316 3.70331 7.61477 3.57234 8.30375 3.55891L8.31299 3.55873L8.32223 3.55821C9.26055 3.50515 9.55894 3.505 12.004 3.505C14.4427 3.505 14.7396 3.51698 15.6922 3.55853ZM19.4731 17.504C19.6349 17.0651 19.7403 16.6081 19.7872 16.144H19.804L19.8255 15.6665C19.869 14.6992 19.869 14.425 19.869 12.0046V11.99C19.869 9.55601 19.858 9.27579 19.8148 8.31949C19.8038 7.69606 19.6884 7.07887 19.4733 6.49356L19.4734 6.49354L19.4704 6.4858C19.295 6.03186 19.0266 5.6196 18.6825 5.27548C18.3384 4.93137 17.9261 4.663 17.4722 4.48761L17.4722 4.48757L17.4664 4.48539C16.8814 4.26774 16.2635 4.15201 15.6395 4.14319C14.6672 4.088 14.3948 4.088 11.9857 4.088H11.968C9.53404 4.088 9.25363 4.09997 8.29803 4.14317C7.67388 4.1528 7.05589 4.26841 6.47045 4.48509L6.47044 4.48506L6.46526 4.48704C5.54462 4.83943 4.81482 5.5643 4.45863 6.48572L4.45858 6.4857L4.4559 6.49297C4.23805 7.08355 4.12249 7.70692 4.11417 8.3363C4.061 9.31028 4.061 9.58086 4.061 11.991V12.008C4.061 14.4406 4.07095 14.722 4.11419 15.6776C4.1252 16.301 4.24063 16.9182 4.45568 17.5034L4.45561 17.5035L4.45872 17.5115C4.63482 17.9664 4.90445 18.3792 5.25016 18.7233C5.59587 19.0674 6.00997 19.3351 6.46565 19.5091L6.46963 19.5106C7.05426 19.7281 7.67181 19.8439 8.29548 19.8528C9.2688 19.908 9.54012 19.908 11.9504 19.908H11.968C14.4 19.908 14.6822 19.8971 15.637 19.8528C16.2617 19.8438 16.8802 19.7281 17.466 19.5108L17.466 19.5108L17.4719 19.5085C17.9259 19.3335 18.3383 19.0653 18.6825 18.7213C19.0267 18.3773 19.2951 17.9651 19.4704 17.5111L19.4705 17.5112L19.4731 17.504Z" fill="#E6E6E6" stroke="#E6E6E6"/>
</svg>
