<svg width="29" height="29" viewBox="0 0 29 29" fill="none" xmlns="http://www.w3.org/2000/svg">
<g filter="url(#filter0_d_211_30)">
<path fill-rule="evenodd" clip-rule="evenodd" d="M7.5 6.5V14.5C7.5 15.0304 7.71071 15.5391 8.08579 15.9142C8.46086 16.2893 8.96957 16.5 9.5 16.5H19.5C20.0304 16.5 20.5391 16.2893 20.9142 15.9142C21.2893 15.5391 21.5 15.0304 21.5 14.5V6.5C21.5 5.96957 21.2893 5.46086 20.9142 5.08579C20.5391 4.71071 20.0304 4.5 19.5 4.5H9.5C8.96957 4.5 8.46086 4.71071 8.08579 5.08579C7.71071 5.46086 7.5 5.96957 7.5 6.5V6.5Z" stroke="#E6E6E6" stroke-linecap="round" stroke-linejoin="round"/>
<path d="M9.5 7.5L14.5 10.5L19.5 7.5" stroke="#E6E6E6" stroke-linecap="round" stroke-linejoin="round"/>
</g>
<defs>
<filter id="filter0_d_211_30" x="0" y="0" width="29" height="29" filterUnits="userSpaceOnUse" color-interpolation-filters="sRGB">
<feFlood flood-opacity="0" result="BackgroundImageFix"/>
<feColorMatrix in="SourceAlpha" type="matrix" values="0 0 0 0 0 0 0 0 0 0 0 0 0 0 0 0 0 0 127 0" result="hardAlpha"/>
<feOffset dy="4"/>
<feGaussianBlur stdDeviation="2"/>
<feComposite in2="hardAlpha" operator="out"/>
<feColorMatrix type="matrix" values="0 0 0 0 0 0 0 0 0 0 0 0 0 0 0 0 0 0 0.25 0"/>
<feBlend mode="normal" in2="BackgroundImageFix" result="effect1_dropShadow_211_30"/>
<feBlend mode="normal" in="SourceGraphic" in2="effect1_dropShadow_211_30" result="shape"/>
</filter>
</defs>
</svg>
