<svg width="152" height="56" viewBox="0 0 152 56" fill="none" xmlns="http://www.w3.org/2000/svg">
<path d="M147.892 15.3976L143.322 15.3935C129.682 15.3567 116.846 21.3525 108.156 31.8205L104.645 36.047C101.748 39.5364 97.4791 41.5964 92.934 41.6947C88.3353 41.7971 83.9179 39.8886 80.8068 36.4607L80.3535 35.9651C74.3785 29.3878 65.8528 25.9394 56.9521 26.5128C48.0555 27.082 40.0408 31.5911 34.9682 38.877L31.07 44.4755C30.3777 45.4707 29.3641 45.4912 28.9602 45.4543C28.5605 45.4175 27.5839 45.2168 27.0812 44.1397L9.7784 3.16854C8.83064 0.920119 6.49009 -0.312619 4.08361 0.166551C1.67712 0.649817 0 2.68936 0 5.12617V51.8965C0 54.1572 1.84607 55.992 4.12069 55.992C6.39531 55.992 8.24138 54.1572 8.24138 51.8965V20.7873C8.24138 20.7668 8.26611 20.7627 8.27435 20.7791L19.4991 47.3669L19.5362 47.457C21.1144 50.9587 24.3533 53.2603 28.1938 53.6125C32.0384 53.9647 35.644 52.2938 37.8403 49.1362L41.7138 43.5704C42.8758 50.4303 48.7025 55.8323 55.9013 55.9961C64.1839 56.1804 70.983 49.5375 70.983 41.3507V38.5616C72.1492 39.4053 73.2412 40.3677 74.2302 41.4571L74.6793 41.9527C74.8524 42.1411 75.0296 42.3213 75.2068 42.5056L72.4953 51.061C71.7206 53.506 73.5544 55.9961 76.1339 56.0002H76.7644C78.4333 56.0002 79.9085 54.9272 80.4112 53.3463L82.2449 47.5635C85.5991 49.1525 89.3078 49.9757 93.107 49.8897C96.0492 49.8242 98.9131 49.2181 101.579 48.141L103.166 53.1375C103.705 54.8412 105.296 56.0002 107.097 56.0002C109.882 56.0002 111.864 53.3095 111.028 50.672L108.778 43.5909C109.561 42.8701 110.307 42.1001 110.999 41.2688L114.502 37.0504C114.667 36.8538 114.831 36.6613 114.996 36.4689V51.9047C114.996 54.1654 116.842 56.0002 119.117 56.0002C121.391 56.0002 123.238 54.1654 123.238 51.9047V29.3796C126.757 27.1557 130.63 25.5298 134.701 24.5797V51.9047C134.701 54.1654 136.547 56.0002 138.822 56.0002C141.097 56.0002 142.943 54.1654 142.943 51.9047V23.5845C143.037 23.5845 143.136 23.5804 143.231 23.5804H143.301L147.871 23.5845C150.146 23.5886 151.996 21.7579 152 19.4972C152.008 17.2365 150.166 15.4017 147.892 15.3976ZM62.7458 41.3507C62.7458 45.0161 59.6594 47.9771 55.9343 47.8051C52.4317 47.6413 49.745 44.6311 49.745 41.15V36.7064C52.1309 35.5597 54.7475 34.8593 57.4795 34.6832C59.2679 34.5686 61.0316 34.6873 62.7417 35.0109V41.3507H62.7458Z" fill="white"/>
<path d="M45.6242 25.7814C47.8988 25.7814 49.7449 23.9466 49.7449 21.6859V14.6908C49.7449 11.0254 52.8313 8.06436 56.5564 8.23637C60.059 8.40018 62.7457 11.4104 62.7457 14.8915V20.4532C62.7457 22.7139 64.5917 24.5486 66.8663 24.5486C69.141 24.5486 70.987 22.7139 70.987 20.4532V14.6908C70.987 6.49988 64.1879 -0.142977 55.9053 0.0454145C47.8493 0.225615 41.5035 6.97496 41.5035 14.9857V21.69C41.5035 23.9507 43.3495 25.7814 45.6242 25.7814Z" fill="white"/>
<path d="M82.6777 32.5467C84.837 33.2225 87.1404 32.0307 87.8245 29.8847L91.8009 17.3894C91.8174 17.3894 91.8174 17.3894 91.8339 17.3894L96.2101 31.5065C96.8941 33.6648 99.2099 34.8607 101.382 34.1767C103.553 33.4969 104.756 31.1952 104.068 29.0369L95.8969 2.96922C95.3283 1.19178 93.6923 0 91.8174 0H91.8133C89.9384 0 88.2984 1.19588 87.7338 2.97741L79.9869 27.4069C79.3029 29.5652 80.5061 31.8669 82.6777 32.5467Z" fill="white"/>
<path d="M119.298 18.2291C121.577 18.2291 123.423 16.3944 123.423 14.1296V4.14889C123.423 1.88409 121.577 0.0493164 119.298 0.0493164C117.032 0.0493164 115.194 1.8759 115.194 4.12841C115.194 8.0314 115.194 14.1541 115.194 14.1541C115.198 16.4067 117.036 18.2291 119.298 18.2291Z" fill="white"/>
<path d="M138.826 13.0851C141.1 13.0851 142.947 11.2504 142.947 8.98966V4.157C142.947 1.8963 141.1 0.0615234 138.826 0.0615234C136.551 0.0615234 134.705 1.8963 134.705 4.157V8.98966C134.705 11.2545 136.551 13.0851 138.826 13.0851Z" fill="white"/>
<path d="M31.4369 34.9343C33.7115 34.9343 35.5576 33.0995 35.5576 30.8388V4.1404C35.5576 1.87969 33.7115 0.0449219 31.4369 0.0449219C29.1623 0.0449219 27.3162 1.87969 27.3162 4.1404V30.8388C27.3162 33.0995 29.1582 34.9343 31.4369 34.9343Z" fill="white"/>
</svg>
