<svg width="161" height="30" viewBox="0 0 161 30" fill="none" xmlns="http://www.w3.org/2000/svg">
<path d="M1.644 9.096C1.412 9.096 1.232 9.032 1.104 8.904C0.984 8.776 0.924 8.592 0.924 8.352V1.212C0.924 0.964 0.984 0.776 1.104 0.648C1.232 0.511999 1.396 0.443999 1.596 0.443999C1.78 0.443999 1.916 0.479999 2.004 0.551999C2.1 0.615999 2.212 0.727999 2.34 0.887999L6.936 6.852H6.624V1.176C6.624 0.944 6.684 0.763999 6.804 0.636C6.932 0.507999 7.112 0.443999 7.344 0.443999C7.576 0.443999 7.752 0.507999 7.872 0.636C7.992 0.763999 8.052 0.944 8.052 1.176V8.376C8.052 8.6 7.996 8.776 7.884 8.904C7.772 9.032 7.62 9.096 7.428 9.096C7.244 9.096 7.096 9.06 6.984 8.988C6.88 8.916 6.764 8.8 6.636 8.64L2.052 2.676H2.352V8.352C2.352 8.592 2.292 8.776 2.172 8.904C2.052 9.032 1.876 9.096 1.644 9.096ZM12.9386 9.12C12.5146 9.12 12.1346 9.04 11.7986 8.88C11.4706 8.712 11.2106 8.488 11.0186 8.208C10.8346 7.928 10.7426 7.612 10.7426 7.26C10.7426 6.828 10.8546 6.488 11.0786 6.24C11.3026 5.984 11.6666 5.8 12.1706 5.688C12.6746 5.576 13.3506 5.52 14.1986 5.52H14.7986V6.384H14.2106C13.7146 6.384 13.3186 6.408 13.0226 6.456C12.7266 6.504 12.5146 6.588 12.3866 6.708C12.2666 6.82 12.2066 6.98 12.2066 7.188C12.2066 7.452 12.2986 7.668 12.4826 7.836C12.6666 8.004 12.9226 8.088 13.2506 8.088C13.5146 8.088 13.7466 8.028 13.9466 7.908C14.1546 7.78 14.3186 7.608 14.4386 7.392C14.5586 7.176 14.6186 6.928 14.6186 6.648V5.268C14.6186 4.868 14.5306 4.58 14.3546 4.404C14.1786 4.228 13.8826 4.14 13.4666 4.14C13.2346 4.14 12.9826 4.168 12.7106 4.224C12.4466 4.28 12.1666 4.376 11.8706 4.512C11.7186 4.584 11.5826 4.604 11.4626 4.572C11.3506 4.54 11.2626 4.476 11.1986 4.38C11.1346 4.276 11.1026 4.164 11.1026 4.044C11.1026 3.924 11.1346 3.808 11.1986 3.696C11.2626 3.576 11.3706 3.488 11.5226 3.432C11.8906 3.28 12.2426 3.172 12.5786 3.108C12.9226 3.044 13.2346 3.012 13.5146 3.012C14.0906 3.012 14.5626 3.1 14.9306 3.276C15.3066 3.452 15.5866 3.72 15.7706 4.08C15.9546 4.432 16.0466 4.888 16.0466 5.448V8.328C16.0466 8.576 15.9866 8.768 15.8666 8.904C15.7466 9.032 15.5746 9.096 15.3506 9.096C15.1266 9.096 14.9506 9.032 14.8226 8.904C14.7026 8.768 14.6426 8.576 14.6426 8.328V7.752H14.7386C14.6826 8.032 14.5706 8.276 14.4026 8.484C14.2426 8.684 14.0386 8.84 13.7906 8.952C13.5426 9.064 13.2586 9.12 12.9386 9.12ZM21.5071 9.12C20.9871 9.12 20.5511 9.032 20.1991 8.856C19.8551 8.68 19.5991 8.424 19.4311 8.088C19.2631 7.744 19.1791 7.32 19.1791 6.816V4.26H18.5551C18.3631 4.26 18.2151 4.212 18.1111 4.116C18.0071 4.012 17.9551 3.872 17.9551 3.696C17.9551 3.512 18.0071 3.372 18.1111 3.276C18.2151 3.18 18.3631 3.132 18.5551 3.132H19.1791V2.04C19.1791 1.792 19.2431 1.604 19.3711 1.476C19.5071 1.348 19.6951 1.284 19.9351 1.284C20.1751 1.284 20.3591 1.348 20.4871 1.476C20.6151 1.604 20.6791 1.792 20.6791 2.04V3.132H21.9511C22.1431 3.132 22.2911 3.18 22.3951 3.276C22.4991 3.372 22.5511 3.512 22.5511 3.696C22.5511 3.872 22.4991 4.012 22.3951 4.116C22.2911 4.212 22.1431 4.26 21.9511 4.26H20.6791V6.732C20.6791 7.116 20.7631 7.404 20.9311 7.596C21.0991 7.788 21.3711 7.884 21.7471 7.884C21.8831 7.884 22.0031 7.872 22.1071 7.848C22.2111 7.824 22.3031 7.808 22.3831 7.8C22.4791 7.792 22.5591 7.824 22.6231 7.896C22.6871 7.96 22.7191 8.096 22.7191 8.304C22.7191 8.464 22.6911 8.608 22.6351 8.736C22.5871 8.856 22.4951 8.94 22.3591 8.988C22.2551 9.02 22.1191 9.048 21.9511 9.072C21.7831 9.104 21.6351 9.12 21.5071 9.12ZM25.5709 9.084C25.3309 9.084 25.1469 9.012 25.0189 8.868C24.8909 8.724 24.8269 8.524 24.8269 8.268V3.864C24.8269 3.6 24.8909 3.4 25.0189 3.264C25.1469 3.12 25.3309 3.048 25.5709 3.048C25.8109 3.048 25.9949 3.12 26.1229 3.264C26.2589 3.4 26.3269 3.6 26.3269 3.864V8.268C26.3269 8.524 26.2629 8.724 26.1349 8.868C26.0069 9.012 25.8189 9.084 25.5709 9.084ZM25.5709 1.932C25.2909 1.932 25.0709 1.864 24.9109 1.728C24.7589 1.584 24.6829 1.388 24.6829 1.14C24.6829 0.884 24.7589 0.687999 24.9109 0.551999C25.0709 0.416 25.2909 0.348 25.5709 0.348C25.8589 0.348 26.0789 0.416 26.2309 0.551999C26.3829 0.687999 26.4589 0.884 26.4589 1.14C26.4589 1.388 26.3829 1.584 26.2309 1.728C26.0789 1.864 25.8589 1.932 25.5709 1.932ZM31.8115 9.12C31.2035 9.12 30.6755 8.996 30.2275 8.748C29.7795 8.5 29.4315 8.148 29.1835 7.692C28.9355 7.228 28.8115 6.684 28.8115 6.06C28.8115 5.588 28.8795 5.168 29.0155 4.8C29.1595 4.424 29.3635 4.104 29.6275 3.84C29.8915 3.568 30.2075 3.364 30.5755 3.228C30.9435 3.084 31.3555 3.012 31.8115 3.012C32.4195 3.012 32.9475 3.136 33.3955 3.384C33.8435 3.632 34.1915 3.984 34.4395 4.44C34.6875 4.896 34.8115 5.436 34.8115 6.06C34.8115 6.532 34.7395 6.956 34.5955 7.332C34.4595 7.708 34.2595 8.032 33.9955 8.304C33.7315 8.568 33.4155 8.772 33.0475 8.916C32.6795 9.052 32.2675 9.12 31.8115 9.12ZM31.8115 7.98C32.1075 7.98 32.3675 7.908 32.5915 7.764C32.8155 7.62 32.9875 7.408 33.1075 7.128C33.2355 6.84 33.2995 6.484 33.2995 6.06C33.2995 5.42 33.1635 4.944 32.8915 4.632C32.6195 4.312 32.2595 4.152 31.8115 4.152C31.5155 4.152 31.2555 4.224 31.0315 4.368C30.8075 4.504 30.6315 4.716 30.5035 5.004C30.3835 5.284 30.3235 5.636 30.3235 6.06C30.3235 6.692 30.4595 7.172 30.7315 7.5C31.0035 7.82 31.3635 7.98 31.8115 7.98ZM38.0435 9.096C37.8035 9.096 37.6195 9.032 37.4915 8.904C37.3635 8.768 37.2995 8.576 37.2995 8.328V3.792C37.2995 3.544 37.3635 3.356 37.4915 3.228C37.6195 3.1 37.7995 3.036 38.0315 3.036C38.2635 3.036 38.4435 3.1 38.5715 3.228C38.6995 3.356 38.7635 3.544 38.7635 3.792V4.608L38.6315 4.308C38.8075 3.884 39.0795 3.564 39.4475 3.348C39.8235 3.124 40.2475 3.012 40.7195 3.012C41.1915 3.012 41.5795 3.1 41.8835 3.276C42.1875 3.452 42.4155 3.72 42.5675 4.08C42.7195 4.432 42.7955 4.88 42.7955 5.424V8.328C42.7955 8.576 42.7315 8.768 42.6035 8.904C42.4755 9.032 42.2915 9.096 42.0515 9.096C41.8115 9.096 41.6235 9.032 41.4875 8.904C41.3595 8.768 41.2955 8.576 41.2955 8.328V5.496C41.2955 5.04 41.2075 4.708 41.0315 4.5C40.8635 4.292 40.5995 4.188 40.2395 4.188C39.7995 4.188 39.4475 4.328 39.1835 4.608C38.9275 4.88 38.7995 5.244 38.7995 5.7V8.328C38.7995 8.84 38.5475 9.096 38.0435 9.096ZM47.7785 9.096C47.5785 9.096 47.4065 9.048 47.2625 8.952C47.1185 8.848 47.0025 8.688 46.9145 8.472L45.1745 4.032C45.1025 3.84 45.0785 3.672 45.1025 3.528C45.1345 3.376 45.2105 3.256 45.3305 3.168C45.4505 3.08 45.6105 3.036 45.8105 3.036C45.9865 3.036 46.1305 3.08 46.2425 3.168C46.3545 3.248 46.4505 3.404 46.5305 3.636L47.9825 7.632H47.7065L49.2065 3.54C49.2705 3.364 49.3545 3.236 49.4585 3.156C49.5705 3.076 49.7145 3.036 49.8905 3.036C50.0665 3.036 50.2105 3.08 50.3225 3.168C50.4345 3.248 50.5185 3.372 50.5745 3.54L52.0505 7.632H51.7985L53.2625 3.6C53.3425 3.384 53.4425 3.236 53.5625 3.156C53.6905 3.076 53.8305 3.036 53.9825 3.036C54.1745 3.036 54.3225 3.084 54.4265 3.18C54.5305 3.276 54.5905 3.4 54.6065 3.552C54.6225 3.696 54.5945 3.856 54.5225 4.032L52.7945 8.472C52.7145 8.68 52.5985 8.836 52.4465 8.94C52.3025 9.044 52.1305 9.096 51.9305 9.096C51.7305 9.096 51.5545 9.044 51.4025 8.94C51.2585 8.836 51.1465 8.68 51.0665 8.472L49.4945 4.308H50.1785L48.6425 8.46C48.5625 8.676 48.4505 8.836 48.3065 8.94C48.1625 9.044 47.9865 9.096 47.7785 9.096ZM57.7349 9.084C57.4949 9.084 57.3109 9.012 57.1829 8.868C57.0549 8.724 56.9909 8.524 56.9909 8.268V3.864C56.9909 3.6 57.0549 3.4 57.1829 3.264C57.3109 3.12 57.4949 3.048 57.7349 3.048C57.9749 3.048 58.1589 3.12 58.2869 3.264C58.4229 3.4 58.4909 3.6 58.4909 3.864V8.268C58.4909 8.524 58.4269 8.724 58.2989 8.868C58.1709 9.012 57.9829 9.084 57.7349 9.084ZM57.7349 1.932C57.4549 1.932 57.2349 1.864 57.0749 1.728C56.9229 1.584 56.8469 1.388 56.8469 1.14C56.8469 0.884 56.9229 0.687999 57.0749 0.551999C57.2349 0.416 57.4549 0.348 57.7349 0.348C58.0229 0.348 58.2429 0.416 58.3949 0.551999C58.5469 0.687999 58.6229 0.884 58.6229 1.14C58.6229 1.388 58.5469 1.584 58.3949 1.728C58.2429 1.864 58.0229 1.932 57.7349 1.932ZM63.5555 9.12C63.0435 9.12 62.5915 8.996 62.1995 8.748C61.8155 8.5 61.5155 8.148 61.2995 7.692C61.0835 7.228 60.9755 6.684 60.9755 6.06C60.9755 5.428 61.0835 4.888 61.2995 4.44C61.5155 3.984 61.8155 3.632 62.1995 3.384C62.5915 3.136 63.0435 3.012 63.5555 3.012C64.0435 3.012 64.4675 3.132 64.8275 3.372C65.1955 3.612 65.4435 3.928 65.5715 4.32H65.4395V1.2C65.4395 0.951999 65.5035 0.763999 65.6315 0.636C65.7595 0.507999 65.9435 0.443999 66.1835 0.443999C66.4235 0.443999 66.6075 0.507999 66.7355 0.636C66.8715 0.763999 66.9395 0.951999 66.9395 1.2V8.328C66.9395 8.576 66.8755 8.768 66.7475 8.904C66.6195 9.032 66.4355 9.096 66.1955 9.096C65.9555 9.096 65.7715 9.032 65.6435 8.904C65.5155 8.768 65.4515 8.576 65.4515 8.328V7.392L65.5835 7.752C65.4635 8.168 65.2195 8.5 64.8515 8.748C64.4835 8.996 64.0515 9.12 63.5555 9.12ZM63.9755 7.98C64.2715 7.98 64.5315 7.908 64.7555 7.764C64.9795 7.62 65.1515 7.408 65.2715 7.128C65.3995 6.84 65.4635 6.484 65.4635 6.06C65.4635 5.42 65.3275 4.944 65.0555 4.632C64.7835 4.312 64.4235 4.152 63.9755 4.152C63.6795 4.152 63.4195 4.224 63.1955 4.368C62.9715 4.504 62.7955 4.716 62.6675 5.004C62.5475 5.284 62.4875 5.636 62.4875 6.06C62.4875 6.692 62.6235 7.172 62.8955 7.5C63.1675 7.82 63.5275 7.98 63.9755 7.98ZM72.6368 9.12C71.9728 9.12 71.4008 8.996 70.9208 8.748C70.4408 8.5 70.0688 8.148 69.8048 7.692C69.5488 7.236 69.4208 6.696 69.4208 6.072C69.4208 5.464 69.5448 4.932 69.7928 4.476C70.0488 4.02 70.3968 3.664 70.8368 3.408C71.2848 3.144 71.7928 3.012 72.3608 3.012C72.7768 3.012 73.1488 3.08 73.4768 3.216C73.8128 3.352 74.0968 3.548 74.3288 3.804C74.5688 4.06 74.7488 4.372 74.8688 4.74C74.9968 5.1 75.0608 5.508 75.0608 5.964C75.0608 6.108 75.0088 6.22 74.9048 6.3C74.8088 6.372 74.6688 6.408 74.4848 6.408H70.6328V5.544H74.0048L73.8128 5.724C73.8128 5.356 73.7568 5.048 73.6448 4.8C73.5408 4.552 73.3848 4.364 73.1768 4.236C72.9768 4.1 72.7248 4.032 72.4208 4.032C72.0848 4.032 71.7968 4.112 71.5568 4.272C71.3248 4.424 71.1448 4.644 71.0168 4.932C70.8968 5.212 70.8368 5.548 70.8368 5.94V6.024C70.8368 6.68 70.9888 7.172 71.2928 7.5C71.6048 7.82 72.0608 7.98 72.6608 7.98C72.8688 7.98 73.1008 7.956 73.3568 7.908C73.6208 7.852 73.8688 7.76 74.1008 7.632C74.2688 7.536 74.4168 7.496 74.5448 7.512C74.6728 7.52 74.7728 7.564 74.8448 7.644C74.9248 7.724 74.9728 7.824 74.9888 7.944C75.0048 8.056 74.9808 8.172 74.9168 8.292C74.8608 8.412 74.7608 8.516 74.6168 8.604C74.3368 8.78 74.0128 8.912 73.6448 9C73.2848 9.08 72.9488 9.12 72.6368 9.12ZM85.9426 9.12C85.1266 9.12 84.4106 8.94 83.7946 8.58C83.1866 8.22 82.7146 7.716 82.3786 7.068C82.0426 6.412 81.8746 5.644 81.8746 4.764C81.8746 4.1 81.9706 3.504 82.1626 2.976C82.3546 2.44 82.6266 1.984 82.9786 1.608C83.3386 1.224 83.7666 0.932 84.2626 0.732C84.7666 0.524 85.3266 0.42 85.9426 0.42C86.7666 0.42 87.4826 0.6 88.0906 0.96C88.6986 1.312 89.1706 1.812 89.5066 2.46C89.8426 3.108 90.0106 3.872 90.0106 4.752C90.0106 5.416 89.9146 6.016 89.7226 6.552C89.5306 7.088 89.2546 7.548 88.8946 7.932C88.5426 8.316 88.1146 8.612 87.6106 8.82C87.1146 9.02 86.5586 9.12 85.9426 9.12ZM85.9426 7.8C86.4626 7.8 86.9026 7.68 87.2626 7.44C87.6306 7.2 87.9106 6.852 88.1026 6.396C88.3026 5.94 88.4026 5.396 88.4026 4.764C88.4026 3.804 88.1866 3.06 87.7546 2.532C87.3306 2.004 86.7266 1.74 85.9426 1.74C85.4306 1.74 84.9906 1.86 84.6226 2.1C84.2546 2.332 83.9706 2.676 83.7706 3.132C83.5786 3.58 83.4826 4.124 83.4826 4.764C83.4826 5.716 83.6986 6.46 84.1306 6.996C84.5626 7.532 85.1666 7.8 85.9426 7.8ZM93.4224 11.256C93.1824 11.256 92.9984 11.192 92.8704 11.064C92.7424 10.936 92.6784 10.748 92.6784 10.5V3.792C92.6784 3.544 92.7424 3.356 92.8704 3.228C92.9984 3.1 93.1784 3.036 93.4104 3.036C93.6504 3.036 93.8344 3.1 93.9624 3.228C94.0904 3.356 94.1544 3.544 94.1544 3.792V4.728L94.0224 4.368C94.1424 3.96 94.3864 3.632 94.7544 3.384C95.1304 3.136 95.5664 3.012 96.0624 3.012C96.5744 3.012 97.0224 3.136 97.4064 3.384C97.7984 3.632 98.1024 3.984 98.3184 4.44C98.5344 4.888 98.6424 5.428 98.6424 6.06C98.6424 6.684 98.5344 7.228 98.3184 7.692C98.1024 8.148 97.8024 8.5 97.4184 8.748C97.0344 8.996 96.5824 9.12 96.0624 9.12C95.5744 9.12 95.1464 9 94.7784 8.76C94.4104 8.512 94.1624 8.192 94.0344 7.8H94.1784V10.5C94.1784 10.748 94.1104 10.936 93.9744 11.064C93.8464 11.192 93.6624 11.256 93.4224 11.256ZM95.6424 7.98C95.9384 7.98 96.1984 7.908 96.4224 7.764C96.6464 7.62 96.8184 7.408 96.9384 7.128C97.0664 6.84 97.1304 6.484 97.1304 6.06C97.1304 5.42 96.9944 4.944 96.7224 4.632C96.4504 4.312 96.0904 4.152 95.6424 4.152C95.3464 4.152 95.0864 4.224 94.8624 4.368C94.6384 4.504 94.4624 4.716 94.3344 5.004C94.2144 5.284 94.1544 5.636 94.1544 6.06C94.1544 6.692 94.2904 7.172 94.5624 7.5C94.8344 7.82 95.1944 7.98 95.6424 7.98ZM104.016 9.12C103.352 9.12 102.78 8.996 102.3 8.748C101.82 8.5 101.448 8.148 101.184 7.692C100.928 7.236 100.8 6.696 100.8 6.072C100.8 5.464 100.924 4.932 101.172 4.476C101.428 4.02 101.776 3.664 102.216 3.408C102.664 3.144 103.172 3.012 103.74 3.012C104.156 3.012 104.528 3.08 104.856 3.216C105.192 3.352 105.476 3.548 105.708 3.804C105.948 4.06 106.128 4.372 106.248 4.74C106.376 5.1 106.44 5.508 106.44 5.964C106.44 6.108 106.388 6.22 106.284 6.3C106.188 6.372 106.048 6.408 105.864 6.408H102.012V5.544H105.384L105.192 5.724C105.192 5.356 105.136 5.048 105.024 4.8C104.92 4.552 104.764 4.364 104.556 4.236C104.356 4.1 104.104 4.032 103.8 4.032C103.464 4.032 103.176 4.112 102.936 4.272C102.704 4.424 102.524 4.644 102.396 4.932C102.276 5.212 102.216 5.548 102.216 5.94V6.024C102.216 6.68 102.368 7.172 102.672 7.5C102.984 7.82 103.44 7.98 104.04 7.98C104.248 7.98 104.48 7.956 104.736 7.908C105 7.852 105.248 7.76 105.48 7.632C105.648 7.536 105.796 7.496 105.924 7.512C106.052 7.52 106.152 7.564 106.224 7.644C106.304 7.724 106.352 7.824 106.368 7.944C106.384 8.056 106.36 8.172 106.296 8.292C106.24 8.412 106.14 8.516 105.996 8.604C105.716 8.78 105.392 8.912 105.024 9C104.664 9.08 104.328 9.12 104.016 9.12ZM109.646 9.096C109.398 9.096 109.206 9.032 109.07 8.904C108.942 8.768 108.878 8.576 108.878 8.328V3.792C108.878 3.544 108.942 3.356 109.07 3.228C109.198 3.1 109.378 3.036 109.61 3.036C109.842 3.036 110.022 3.1 110.15 3.228C110.278 3.356 110.342 3.544 110.342 3.792V4.548H110.222C110.334 4.068 110.554 3.704 110.882 3.456C111.21 3.208 111.646 3.06 112.19 3.012C112.358 2.996 112.49 3.04 112.586 3.144C112.69 3.24 112.75 3.392 112.766 3.6C112.782 3.8 112.734 3.964 112.622 4.092C112.518 4.212 112.358 4.284 112.142 4.308L111.878 4.332C111.39 4.38 111.022 4.532 110.774 4.788C110.526 5.036 110.402 5.388 110.402 5.844V8.328C110.402 8.576 110.338 8.768 110.21 8.904C110.082 9.032 109.894 9.096 109.646 9.096ZM116.7 9.12C116.276 9.12 115.896 9.04 115.56 8.88C115.232 8.712 114.972 8.488 114.78 8.208C114.596 7.928 114.504 7.612 114.504 7.26C114.504 6.828 114.616 6.488 114.84 6.24C115.064 5.984 115.428 5.8 115.932 5.688C116.436 5.576 117.112 5.52 117.96 5.52H118.56V6.384H117.972C117.476 6.384 117.08 6.408 116.784 6.456C116.488 6.504 116.276 6.588 116.148 6.708C116.028 6.82 115.968 6.98 115.968 7.188C115.968 7.452 116.06 7.668 116.244 7.836C116.428 8.004 116.684 8.088 117.012 8.088C117.276 8.088 117.508 8.028 117.708 7.908C117.916 7.78 118.08 7.608 118.2 7.392C118.32 7.176 118.38 6.928 118.38 6.648V5.268C118.38 4.868 118.292 4.58 118.116 4.404C117.94 4.228 117.644 4.14 117.228 4.14C116.996 4.14 116.744 4.168 116.472 4.224C116.208 4.28 115.928 4.376 115.632 4.512C115.48 4.584 115.344 4.604 115.224 4.572C115.112 4.54 115.024 4.476 114.96 4.38C114.896 4.276 114.864 4.164 114.864 4.044C114.864 3.924 114.896 3.808 114.96 3.696C115.024 3.576 115.132 3.488 115.284 3.432C115.652 3.28 116.004 3.172 116.34 3.108C116.684 3.044 116.996 3.012 117.276 3.012C117.852 3.012 118.324 3.1 118.692 3.276C119.068 3.452 119.348 3.72 119.532 4.08C119.716 4.432 119.808 4.888 119.808 5.448V8.328C119.808 8.576 119.748 8.768 119.628 8.904C119.508 9.032 119.336 9.096 119.112 9.096C118.888 9.096 118.712 9.032 118.584 8.904C118.464 8.768 118.404 8.576 118.404 8.328V7.752H118.5C118.444 8.032 118.332 8.276 118.164 8.484C118.004 8.684 117.8 8.84 117.552 8.952C117.304 9.064 117.02 9.12 116.7 9.12ZM125.269 9.12C124.749 9.12 124.313 9.032 123.961 8.856C123.617 8.68 123.361 8.424 123.193 8.088C123.025 7.744 122.941 7.32 122.941 6.816V4.26H122.317C122.125 4.26 121.977 4.212 121.873 4.116C121.769 4.012 121.717 3.872 121.717 3.696C121.717 3.512 121.769 3.372 121.873 3.276C121.977 3.18 122.125 3.132 122.317 3.132H122.941V2.04C122.941 1.792 123.005 1.604 123.133 1.476C123.269 1.348 123.457 1.284 123.697 1.284C123.937 1.284 124.121 1.348 124.249 1.476C124.377 1.604 124.441 1.792 124.441 2.04V3.132H125.713C125.905 3.132 126.053 3.18 126.157 3.276C126.261 3.372 126.313 3.512 126.313 3.696C126.313 3.872 126.261 4.012 126.157 4.116C126.053 4.212 125.905 4.26 125.713 4.26H124.441V6.732C124.441 7.116 124.525 7.404 124.693 7.596C124.861 7.788 125.133 7.884 125.509 7.884C125.645 7.884 125.765 7.872 125.869 7.848C125.973 7.824 126.065 7.808 126.145 7.8C126.241 7.792 126.321 7.824 126.385 7.896C126.449 7.96 126.481 8.096 126.481 8.304C126.481 8.464 126.453 8.608 126.397 8.736C126.349 8.856 126.257 8.94 126.121 8.988C126.017 9.02 125.881 9.048 125.713 9.072C125.545 9.104 125.397 9.12 125.269 9.12ZM129.333 9.084C129.093 9.084 128.909 9.012 128.781 8.868C128.653 8.724 128.589 8.524 128.589 8.268V3.864C128.589 3.6 128.653 3.4 128.781 3.264C128.909 3.12 129.093 3.048 129.333 3.048C129.573 3.048 129.757 3.12 129.885 3.264C130.021 3.4 130.089 3.6 130.089 3.864V8.268C130.089 8.524 130.025 8.724 129.897 8.868C129.769 9.012 129.581 9.084 129.333 9.084ZM129.333 1.932C129.053 1.932 128.833 1.864 128.673 1.728C128.521 1.584 128.445 1.388 128.445 1.14C128.445 0.884 128.521 0.687999 128.673 0.551999C128.833 0.416 129.053 0.348 129.333 0.348C129.621 0.348 129.841 0.416 129.993 0.551999C130.145 0.687999 130.221 0.884 130.221 1.14C130.221 1.388 130.145 1.584 129.993 1.728C129.841 1.864 129.621 1.932 129.333 1.932ZM135.573 9.12C134.965 9.12 134.437 8.996 133.989 8.748C133.541 8.5 133.193 8.148 132.945 7.692C132.697 7.228 132.573 6.684 132.573 6.06C132.573 5.588 132.641 5.168 132.777 4.8C132.921 4.424 133.125 4.104 133.389 3.84C133.653 3.568 133.969 3.364 134.337 3.228C134.705 3.084 135.117 3.012 135.573 3.012C136.181 3.012 136.709 3.136 137.157 3.384C137.605 3.632 137.953 3.984 138.201 4.44C138.449 4.896 138.573 5.436 138.573 6.06C138.573 6.532 138.501 6.956 138.357 7.332C138.221 7.708 138.021 8.032 137.757 8.304C137.493 8.568 137.177 8.772 136.809 8.916C136.441 9.052 136.029 9.12 135.573 9.12ZM135.573 7.98C135.869 7.98 136.129 7.908 136.353 7.764C136.577 7.62 136.749 7.408 136.869 7.128C136.997 6.84 137.061 6.484 137.061 6.06C137.061 5.42 136.925 4.944 136.653 4.632C136.381 4.312 136.021 4.152 135.573 4.152C135.277 4.152 135.017 4.224 134.793 4.368C134.569 4.504 134.393 4.716 134.265 5.004C134.145 5.284 134.085 5.636 134.085 6.06C134.085 6.692 134.221 7.172 134.493 7.5C134.765 7.82 135.125 7.98 135.573 7.98ZM141.805 9.096C141.565 9.096 141.381 9.032 141.253 8.904C141.125 8.768 141.061 8.576 141.061 8.328V3.792C141.061 3.544 141.125 3.356 141.253 3.228C141.381 3.1 141.561 3.036 141.793 3.036C142.025 3.036 142.205 3.1 142.333 3.228C142.461 3.356 142.525 3.544 142.525 3.792V4.608L142.393 4.308C142.569 3.884 142.841 3.564 143.209 3.348C143.585 3.124 144.009 3.012 144.481 3.012C144.953 3.012 145.341 3.1 145.645 3.276C145.949 3.452 146.177 3.72 146.329 4.08C146.481 4.432 146.557 4.88 146.557 5.424V8.328C146.557 8.576 146.493 8.768 146.365 8.904C146.237 9.032 146.053 9.096 145.813 9.096C145.573 9.096 145.385 9.032 145.249 8.904C145.121 8.768 145.057 8.576 145.057 8.328V5.496C145.057 5.04 144.969 4.708 144.793 4.5C144.625 4.292 144.361 4.188 144.001 4.188C143.561 4.188 143.209 4.328 142.945 4.608C142.689 4.88 142.561 5.244 142.561 5.7V8.328C142.561 8.84 142.309 9.096 141.805 9.096ZM151.263 9.12C150.839 9.12 150.459 9.04 150.123 8.88C149.795 8.712 149.535 8.488 149.343 8.208C149.159 7.928 149.067 7.612 149.067 7.26C149.067 6.828 149.179 6.488 149.403 6.24C149.627 5.984 149.991 5.8 150.495 5.688C150.999 5.576 151.675 5.52 152.523 5.52H153.123V6.384H152.535C152.039 6.384 151.643 6.408 151.347 6.456C151.051 6.504 150.839 6.588 150.711 6.708C150.591 6.82 150.531 6.98 150.531 7.188C150.531 7.452 150.623 7.668 150.807 7.836C150.991 8.004 151.247 8.088 151.575 8.088C151.839 8.088 152.071 8.028 152.271 7.908C152.479 7.78 152.643 7.608 152.763 7.392C152.883 7.176 152.943 6.928 152.943 6.648V5.268C152.943 4.868 152.855 4.58 152.679 4.404C152.503 4.228 152.207 4.14 151.791 4.14C151.559 4.14 151.307 4.168 151.035 4.224C150.771 4.28 150.491 4.376 150.195 4.512C150.043 4.584 149.907 4.604 149.787 4.572C149.675 4.54 149.587 4.476 149.523 4.38C149.459 4.276 149.427 4.164 149.427 4.044C149.427 3.924 149.459 3.808 149.523 3.696C149.587 3.576 149.695 3.488 149.847 3.432C150.215 3.28 150.567 3.172 150.903 3.108C151.247 3.044 151.559 3.012 151.839 3.012C152.415 3.012 152.887 3.1 153.255 3.276C153.631 3.452 153.911 3.72 154.095 4.08C154.279 4.432 154.371 4.888 154.371 5.448V8.328C154.371 8.576 154.311 8.768 154.191 8.904C154.071 9.032 153.899 9.096 153.675 9.096C153.451 9.096 153.275 9.032 153.147 8.904C153.027 8.768 152.967 8.576 152.967 8.328V7.752H153.063C153.007 8.032 152.895 8.276 152.727 8.484C152.567 8.684 152.363 8.84 152.115 8.952C151.867 9.064 151.583 9.12 151.263 9.12ZM159.147 9.12C158.483 9.12 157.983 8.932 157.647 8.556C157.311 8.172 157.143 7.612 157.143 6.876V1.2C157.143 0.951999 157.207 0.763999 157.335 0.636C157.463 0.507999 157.647 0.443999 157.887 0.443999C158.127 0.443999 158.311 0.507999 158.439 0.636C158.575 0.763999 158.643 0.951999 158.643 1.2V6.804C158.643 7.172 158.719 7.444 158.871 7.62C159.031 7.796 159.255 7.884 159.543 7.884C159.607 7.884 159.667 7.884 159.723 7.884C159.779 7.876 159.835 7.868 159.891 7.86C160.003 7.844 160.079 7.876 160.119 7.956C160.159 8.028 160.179 8.18 160.179 8.412C160.179 8.612 160.139 8.768 160.059 8.88C159.979 8.992 159.847 9.06 159.663 9.084C159.583 9.092 159.499 9.1 159.411 9.108C159.323 9.116 159.235 9.12 159.147 9.12ZM1.008 29.096C0.816 29.096 0.66 29.052 0.54 28.964C0.428 28.876 0.36 28.76 0.336 28.616C0.312 28.464 0.34 28.296 0.42 28.112L3.588 21.092C3.692 20.86 3.816 20.696 3.96 20.6C4.112 20.496 4.284 20.444 4.476 20.444C4.66 20.444 4.824 20.496 4.968 20.6C5.12 20.696 5.248 20.86 5.352 21.092L8.532 28.112C8.62 28.296 8.652 28.464 8.628 28.616C8.604 28.768 8.536 28.888 8.424 28.976C8.312 29.056 8.164 29.096 7.98 29.096C7.756 29.096 7.58 29.044 7.452 28.94C7.332 28.828 7.224 28.66 7.128 28.436L6.348 26.624L6.996 27.044H1.932L2.58 26.624L1.812 28.436C1.708 28.668 1.6 28.836 1.488 28.94C1.376 29.044 1.216 29.096 1.008 29.096ZM4.452 22.208L2.772 26.204L2.46 25.82H6.468L6.168 26.204L4.476 22.208H4.452ZM13.0139 29.12C12.6699 29.12 12.3059 29.084 11.9219 29.012C11.5379 28.94 11.1939 28.816 10.8899 28.64C10.7619 28.56 10.6699 28.468 10.6139 28.364C10.5659 28.252 10.5459 28.144 10.5539 28.04C10.5699 27.928 10.6099 27.832 10.6739 27.752C10.7459 27.672 10.8339 27.62 10.9379 27.596C11.0499 27.572 11.1699 27.592 11.2979 27.656C11.6179 27.808 11.9179 27.916 12.1979 27.98C12.4779 28.036 12.7539 28.064 13.0259 28.064C13.4099 28.064 13.6939 28 13.8779 27.872C14.0699 27.736 14.1659 27.56 14.1659 27.344C14.1659 27.16 14.1019 27.02 13.9739 26.924C13.8539 26.82 13.6699 26.744 13.4219 26.696L12.2219 26.468C11.7259 26.372 11.3459 26.192 11.0819 25.928C10.8259 25.656 10.6979 25.308 10.6979 24.884C10.6979 24.5 10.8019 24.168 11.0099 23.888C11.2259 23.608 11.5219 23.392 11.8979 23.24C12.2739 23.088 12.7059 23.012 13.1939 23.012C13.5459 23.012 13.8739 23.052 14.1779 23.132C14.4899 23.204 14.7899 23.32 15.0779 23.48C15.1979 23.544 15.2779 23.628 15.3179 23.732C15.3659 23.836 15.3779 23.944 15.3539 24.056C15.3299 24.16 15.2819 24.256 15.2099 24.344C15.1379 24.424 15.0459 24.476 14.9339 24.5C14.8299 24.516 14.7099 24.492 14.5739 24.428C14.3259 24.3 14.0859 24.208 13.8539 24.152C13.6299 24.096 13.4139 24.068 13.2059 24.068C12.8139 24.068 12.5219 24.136 12.3299 24.272C12.1459 24.408 12.0539 24.588 12.0539 24.812C12.0539 24.98 12.1099 25.12 12.2219 25.232C12.3339 25.344 12.5059 25.42 12.7379 25.46L13.9379 25.688C14.4579 25.784 14.8499 25.96 15.1139 26.216C15.3859 26.472 15.5219 26.816 15.5219 27.248C15.5219 27.832 15.2939 28.292 14.8379 28.628C14.3819 28.956 13.7739 29.12 13.0139 29.12ZM20.1233 29.12C19.7793 29.12 19.4153 29.084 19.0313 29.012C18.6473 28.94 18.3033 28.816 17.9993 28.64C17.8713 28.56 17.7793 28.468 17.7233 28.364C17.6753 28.252 17.6553 28.144 17.6633 28.04C17.6793 27.928 17.7193 27.832 17.7833 27.752C17.8553 27.672 17.9433 27.62 18.0473 27.596C18.1593 27.572 18.2793 27.592 18.4073 27.656C18.7273 27.808 19.0273 27.916 19.3073 27.98C19.5873 28.036 19.8633 28.064 20.1353 28.064C20.5193 28.064 20.8033 28 20.9873 27.872C21.1793 27.736 21.2753 27.56 21.2753 27.344C21.2753 27.16 21.2113 27.02 21.0833 26.924C20.9633 26.82 20.7793 26.744 20.5313 26.696L19.3313 26.468C18.8353 26.372 18.4553 26.192 18.1913 25.928C17.9353 25.656 17.8073 25.308 17.8073 24.884C17.8073 24.5 17.9113 24.168 18.1193 23.888C18.3353 23.608 18.6313 23.392 19.0073 23.24C19.3833 23.088 19.8153 23.012 20.3033 23.012C20.6553 23.012 20.9833 23.052 21.2873 23.132C21.5993 23.204 21.8993 23.32 22.1873 23.48C22.3073 23.544 22.3873 23.628 22.4273 23.732C22.4753 23.836 22.4873 23.944 22.4633 24.056C22.4393 24.16 22.3913 24.256 22.3193 24.344C22.2473 24.424 22.1553 24.476 22.0433 24.5C21.9393 24.516 21.8193 24.492 21.6833 24.428C21.4353 24.3 21.1953 24.208 20.9633 24.152C20.7393 24.096 20.5233 24.068 20.3153 24.068C19.9233 24.068 19.6313 24.136 19.4393 24.272C19.2553 24.408 19.1633 24.588 19.1633 24.812C19.1633 24.98 19.2193 25.12 19.3313 25.232C19.4433 25.344 19.6153 25.42 19.8473 25.46L21.0473 25.688C21.5673 25.784 21.9593 25.96 22.2233 26.216C22.4953 26.472 22.6313 26.816 22.6313 27.248C22.6313 27.832 22.4033 28.292 21.9473 28.628C21.4913 28.956 20.8833 29.12 20.1233 29.12ZM27.9767 29.12C27.3127 29.12 26.7407 28.996 26.2607 28.748C25.7807 28.5 25.4087 28.148 25.1447 27.692C24.8887 27.236 24.7607 26.696 24.7607 26.072C24.7607 25.464 24.8847 24.932 25.1327 24.476C25.3887 24.02 25.7367 23.664 26.1767 23.408C26.6247 23.144 27.1327 23.012 27.7007 23.012C28.1167 23.012 28.4887 23.08 28.8167 23.216C29.1527 23.352 29.4367 23.548 29.6687 23.804C29.9087 24.06 30.0887 24.372 30.2087 24.74C30.3367 25.1 30.4007 25.508 30.4007 25.964C30.4007 26.108 30.3487 26.22 30.2447 26.3C30.1487 26.372 30.0087 26.408 29.8247 26.408H25.9727V25.544H29.3447L29.1527 25.724C29.1527 25.356 29.0967 25.048 28.9847 24.8C28.8807 24.552 28.7247 24.364 28.5167 24.236C28.3167 24.1 28.0647 24.032 27.7607 24.032C27.4247 24.032 27.1367 24.112 26.8967 24.272C26.6647 24.424 26.4847 24.644 26.3567 24.932C26.2367 25.212 26.1767 25.548 26.1767 25.94V26.024C26.1767 26.68 26.3287 27.172 26.6327 27.5C26.9447 27.82 27.4007 27.98 28.0007 27.98C28.2087 27.98 28.4407 27.956 28.6967 27.908C28.9607 27.852 29.2087 27.76 29.4407 27.632C29.6087 27.536 29.7567 27.496 29.8847 27.512C30.0127 27.52 30.1127 27.564 30.1847 27.644C30.2647 27.724 30.3127 27.824 30.3287 27.944C30.3447 28.056 30.3207 28.172 30.2567 28.292C30.2007 28.412 30.1007 28.516 29.9567 28.604C29.6767 28.78 29.3527 28.912 28.9847 29C28.6247 29.08 28.2887 29.12 27.9767 29.12ZM34.9866 29.12C34.6426 29.12 34.2786 29.084 33.8946 29.012C33.5106 28.94 33.1666 28.816 32.8626 28.64C32.7346 28.56 32.6426 28.468 32.5866 28.364C32.5386 28.252 32.5186 28.144 32.5266 28.04C32.5426 27.928 32.5826 27.832 32.6466 27.752C32.7186 27.672 32.8066 27.62 32.9106 27.596C33.0226 27.572 33.1426 27.592 33.2706 27.656C33.5906 27.808 33.8906 27.916 34.1706 27.98C34.4506 28.036 34.7266 28.064 34.9986 28.064C35.3826 28.064 35.6666 28 35.8506 27.872C36.0426 27.736 36.1386 27.56 36.1386 27.344C36.1386 27.16 36.0746 27.02 35.9466 26.924C35.8266 26.82 35.6426 26.744 35.3946 26.696L34.1946 26.468C33.6986 26.372 33.3186 26.192 33.0546 25.928C32.7986 25.656 32.6706 25.308 32.6706 24.884C32.6706 24.5 32.7746 24.168 32.9826 23.888C33.1986 23.608 33.4946 23.392 33.8706 23.24C34.2466 23.088 34.6786 23.012 35.1666 23.012C35.5186 23.012 35.8466 23.052 36.1506 23.132C36.4626 23.204 36.7626 23.32 37.0506 23.48C37.1706 23.544 37.2506 23.628 37.2906 23.732C37.3386 23.836 37.3506 23.944 37.3266 24.056C37.3026 24.16 37.2546 24.256 37.1826 24.344C37.1106 24.424 37.0186 24.476 36.9066 24.5C36.8026 24.516 36.6826 24.492 36.5466 24.428C36.2986 24.3 36.0586 24.208 35.8266 24.152C35.6026 24.096 35.3866 24.068 35.1786 24.068C34.7866 24.068 34.4946 24.136 34.3026 24.272C34.1186 24.408 34.0266 24.588 34.0266 24.812C34.0266 24.98 34.0826 25.12 34.1946 25.232C34.3066 25.344 34.4786 25.42 34.7106 25.46L35.9106 25.688C36.4306 25.784 36.8226 25.96 37.0866 26.216C37.3586 26.472 37.4946 26.816 37.4946 27.248C37.4946 27.832 37.2666 28.292 36.8106 28.628C36.3546 28.956 35.7466 29.12 34.9866 29.12ZM42.096 29.12C41.752 29.12 41.388 29.084 41.004 29.012C40.62 28.94 40.276 28.816 39.972 28.64C39.844 28.56 39.752 28.468 39.696 28.364C39.648 28.252 39.628 28.144 39.636 28.04C39.652 27.928 39.692 27.832 39.756 27.752C39.828 27.672 39.916 27.62 40.02 27.596C40.132 27.572 40.252 27.592 40.38 27.656C40.7 27.808 41 27.916 41.28 27.98C41.56 28.036 41.836 28.064 42.108 28.064C42.492 28.064 42.776 28 42.96 27.872C43.152 27.736 43.248 27.56 43.248 27.344C43.248 27.16 43.184 27.02 43.056 26.924C42.936 26.82 42.752 26.744 42.504 26.696L41.304 26.468C40.808 26.372 40.428 26.192 40.164 25.928C39.908 25.656 39.78 25.308 39.78 24.884C39.78 24.5 39.884 24.168 40.092 23.888C40.308 23.608 40.604 23.392 40.98 23.24C41.356 23.088 41.788 23.012 42.276 23.012C42.628 23.012 42.956 23.052 43.26 23.132C43.572 23.204 43.872 23.32 44.16 23.48C44.28 23.544 44.36 23.628 44.4 23.732C44.448 23.836 44.46 23.944 44.436 24.056C44.412 24.16 44.364 24.256 44.292 24.344C44.22 24.424 44.128 24.476 44.016 24.5C43.912 24.516 43.792 24.492 43.656 24.428C43.408 24.3 43.168 24.208 42.936 24.152C42.712 24.096 42.496 24.068 42.288 24.068C41.896 24.068 41.604 24.136 41.412 24.272C41.228 24.408 41.136 24.588 41.136 24.812C41.136 24.98 41.192 25.12 41.304 25.232C41.416 25.344 41.588 25.42 41.82 25.46L43.02 25.688C43.54 25.784 43.932 25.96 44.196 26.216C44.468 26.472 44.604 26.816 44.604 27.248C44.604 27.832 44.376 28.292 43.92 28.628C43.464 28.956 42.856 29.12 42.096 29.12ZM47.8253 29.096C47.5853 29.096 47.4013 29.032 47.2733 28.904C47.1453 28.768 47.0813 28.576 47.0813 28.328V23.792C47.0813 23.544 47.1453 23.356 47.2733 23.228C47.4013 23.1 47.5813 23.036 47.8133 23.036C48.0453 23.036 48.2253 23.1 48.3533 23.228C48.4813 23.356 48.5453 23.544 48.5453 23.792V24.668L48.4133 24.308C48.5733 23.908 48.8213 23.592 49.1573 23.36C49.4933 23.128 49.8933 23.012 50.3573 23.012C50.8293 23.012 51.2173 23.124 51.5213 23.348C51.8253 23.572 52.0373 23.916 52.1573 24.38H51.9893C52.1493 23.956 52.4133 23.624 52.7813 23.384C53.1493 23.136 53.5733 23.012 54.0533 23.012C54.5013 23.012 54.8693 23.1 55.1573 23.276C55.4533 23.452 55.6733 23.72 55.8173 24.08C55.9613 24.432 56.0333 24.88 56.0333 25.424V28.328C56.0333 28.576 55.9653 28.768 55.8293 28.904C55.7013 29.032 55.5173 29.096 55.2773 29.096C55.0373 29.096 54.8533 29.032 54.7253 28.904C54.5973 28.768 54.5333 28.576 54.5333 28.328V25.484C54.5333 25.036 54.4573 24.708 54.3053 24.5C54.1613 24.292 53.9133 24.188 53.5613 24.188C53.1693 24.188 52.8613 24.328 52.6373 24.608C52.4133 24.88 52.3013 25.26 52.3013 25.748V28.328C52.3013 28.576 52.2373 28.768 52.1093 28.904C51.9813 29.032 51.7973 29.096 51.5573 29.096C51.3173 29.096 51.1293 29.032 50.9933 28.904C50.8653 28.768 50.8013 28.576 50.8013 28.328V25.484C50.8013 25.036 50.7253 24.708 50.5733 24.5C50.4293 24.292 50.1853 24.188 49.8413 24.188C49.4493 24.188 49.1413 24.328 48.9173 24.608C48.6933 24.88 48.5813 25.26 48.5813 25.748V28.328C48.5813 28.84 48.3293 29.096 47.8253 29.096ZM61.7228 29.12C61.0588 29.12 60.4868 28.996 60.0068 28.748C59.5268 28.5 59.1548 28.148 58.8908 27.692C58.6348 27.236 58.5068 26.696 58.5068 26.072C58.5068 25.464 58.6308 24.932 58.8788 24.476C59.1348 24.02 59.4828 23.664 59.9228 23.408C60.3708 23.144 60.8788 23.012 61.4468 23.012C61.8628 23.012 62.2348 23.08 62.5628 23.216C62.8988 23.352 63.1828 23.548 63.4148 23.804C63.6548 24.06 63.8348 24.372 63.9548 24.74C64.0828 25.1 64.1468 25.508 64.1468 25.964C64.1468 26.108 64.0948 26.22 63.9908 26.3C63.8948 26.372 63.7548 26.408 63.5708 26.408H59.7188V25.544H63.0908L62.8988 25.724C62.8988 25.356 62.8428 25.048 62.7308 24.8C62.6268 24.552 62.4708 24.364 62.2628 24.236C62.0628 24.1 61.8108 24.032 61.5068 24.032C61.1708 24.032 60.8828 24.112 60.6428 24.272C60.4108 24.424 60.2308 24.644 60.1028 24.932C59.9828 25.212 59.9228 25.548 59.9228 25.94V26.024C59.9228 26.68 60.0748 27.172 60.3788 27.5C60.6908 27.82 61.1468 27.98 61.7468 27.98C61.9548 27.98 62.1868 27.956 62.4428 27.908C62.7068 27.852 62.9548 27.76 63.1868 27.632C63.3548 27.536 63.5028 27.496 63.6308 27.512C63.7588 27.52 63.8588 27.564 63.9308 27.644C64.0108 27.724 64.0588 27.824 64.0748 27.944C64.0908 28.056 64.0668 28.172 64.0028 28.292C63.9468 28.412 63.8468 28.516 63.7028 28.604C63.4228 28.78 63.0988 28.912 62.7308 29C62.3708 29.08 62.0348 29.12 61.7228 29.12ZM67.3287 29.096C67.0887 29.096 66.9047 29.032 66.7767 28.904C66.6487 28.768 66.5847 28.576 66.5847 28.328V23.792C66.5847 23.544 66.6487 23.356 66.7767 23.228C66.9047 23.1 67.0847 23.036 67.3167 23.036C67.5487 23.036 67.7287 23.1 67.8567 23.228C67.9847 23.356 68.0487 23.544 68.0487 23.792V24.608L67.9167 24.308C68.0927 23.884 68.3647 23.564 68.7327 23.348C69.1087 23.124 69.5327 23.012 70.0047 23.012C70.4767 23.012 70.8647 23.1 71.1687 23.276C71.4727 23.452 71.7007 23.72 71.8527 24.08C72.0047 24.432 72.0807 24.88 72.0807 25.424V28.328C72.0807 28.576 72.0167 28.768 71.8887 28.904C71.7607 29.032 71.5767 29.096 71.3367 29.096C71.0967 29.096 70.9087 29.032 70.7727 28.904C70.6447 28.768 70.5807 28.576 70.5807 28.328V25.496C70.5807 25.04 70.4927 24.708 70.3167 24.5C70.1487 24.292 69.8847 24.188 69.5247 24.188C69.0847 24.188 68.7327 24.328 68.4687 24.608C68.2127 24.88 68.0847 25.244 68.0847 25.7V28.328C68.0847 28.84 67.8327 29.096 67.3287 29.096ZM77.5422 29.12C77.0222 29.12 76.5862 29.032 76.2342 28.856C75.8902 28.68 75.6342 28.424 75.4662 28.088C75.2982 27.744 75.2142 27.32 75.2142 26.816V24.26H74.5902C74.3982 24.26 74.2502 24.212 74.1462 24.116C74.0422 24.012 73.9902 23.872 73.9902 23.696C73.9902 23.512 74.0422 23.372 74.1462 23.276C74.2502 23.18 74.3982 23.132 74.5902 23.132H75.2142V22.04C75.2142 21.792 75.2782 21.604 75.4062 21.476C75.5422 21.348 75.7302 21.284 75.9702 21.284C76.2102 21.284 76.3942 21.348 76.5222 21.476C76.6502 21.604 76.7142 21.792 76.7142 22.04V23.132H77.9862C78.1782 23.132 78.3262 23.18 78.4302 23.276C78.5342 23.372 78.5862 23.512 78.5862 23.696C78.5862 23.872 78.5342 24.012 78.4302 24.116C78.3262 24.212 78.1782 24.26 77.9862 24.26H76.7142V26.732C76.7142 27.116 76.7982 27.404 76.9662 27.596C77.1342 27.788 77.4062 27.884 77.7822 27.884C77.9182 27.884 78.0382 27.872 78.1422 27.848C78.2462 27.824 78.3382 27.808 78.4182 27.8C78.5142 27.792 78.5942 27.824 78.6582 27.896C78.7222 27.96 78.7542 28.096 78.7542 28.304C78.7542 28.464 78.7262 28.608 78.6702 28.736C78.6222 28.856 78.5302 28.94 78.3942 28.988C78.2902 29.02 78.1542 29.048 77.9862 29.072C77.8182 29.104 77.6702 29.12 77.5422 29.12ZM87.8935 29.12C87.2855 29.12 86.7575 28.996 86.3095 28.748C85.8615 28.5 85.5135 28.148 85.2655 27.692C85.0175 27.228 84.8935 26.684 84.8935 26.06C84.8935 25.588 84.9615 25.168 85.0975 24.8C85.2415 24.424 85.4455 24.104 85.7095 23.84C85.9735 23.568 86.2895 23.364 86.6575 23.228C87.0255 23.084 87.4375 23.012 87.8935 23.012C88.5015 23.012 89.0295 23.136 89.4775 23.384C89.9255 23.632 90.2735 23.984 90.5215 24.44C90.7695 24.896 90.8935 25.436 90.8935 26.06C90.8935 26.532 90.8215 26.956 90.6775 27.332C90.5415 27.708 90.3415 28.032 90.0775 28.304C89.8135 28.568 89.4975 28.772 89.1295 28.916C88.7615 29.052 88.3495 29.12 87.8935 29.12ZM87.8935 27.98C88.1895 27.98 88.4495 27.908 88.6735 27.764C88.8975 27.62 89.0695 27.408 89.1895 27.128C89.3175 26.84 89.3815 26.484 89.3815 26.06C89.3815 25.42 89.2455 24.944 88.9735 24.632C88.7015 24.312 88.3415 24.152 87.8935 24.152C87.5975 24.152 87.3375 24.224 87.1135 24.368C86.8895 24.504 86.7135 24.716 86.5855 25.004C86.4655 25.284 86.4055 25.636 86.4055 26.06C86.4055 26.692 86.5415 27.172 86.8135 27.5C87.0855 27.82 87.4455 27.98 87.8935 27.98ZM94.475 29.096C94.235 29.096 94.047 29.032 93.911 28.904C93.783 28.768 93.719 28.576 93.719 28.328V24.26H93.167C92.975 24.26 92.827 24.212 92.723 24.116C92.619 24.012 92.567 23.872 92.567 23.696C92.567 23.512 92.619 23.372 92.723 23.276C92.827 23.18 92.975 23.132 93.167 23.132H94.151L93.719 23.528V23.12C93.719 22.296 93.927 21.68 94.343 21.272C94.759 20.856 95.359 20.612 96.143 20.54L96.551 20.504C96.711 20.488 96.839 20.516 96.935 20.588C97.031 20.652 97.095 20.74 97.127 20.852C97.159 20.956 97.163 21.064 97.139 21.176C97.115 21.288 97.063 21.388 96.983 21.476C96.911 21.556 96.815 21.6 96.695 21.608L96.527 21.62C96.071 21.652 95.739 21.768 95.531 21.968C95.323 22.168 95.219 22.472 95.219 22.88V23.324L95.027 23.132H96.239C96.431 23.132 96.579 23.18 96.683 23.276C96.787 23.372 96.839 23.512 96.839 23.696C96.839 23.872 96.787 24.012 96.683 24.116C96.579 24.212 96.431 24.26 96.239 24.26H95.219V28.328C95.219 28.84 94.971 29.096 94.475 29.096ZM104.364 29.096C104.116 29.096 103.924 29.028 103.788 28.892C103.66 28.748 103.596 28.552 103.596 28.304V21.236C103.596 20.98 103.66 20.784 103.788 20.648C103.924 20.512 104.116 20.444 104.364 20.444C104.612 20.444 104.8 20.512 104.928 20.648C105.064 20.784 105.132 20.98 105.132 21.236V24.068H109.488V21.236C109.488 20.98 109.552 20.784 109.68 20.648C109.816 20.512 110.008 20.444 110.256 20.444C110.504 20.444 110.692 20.512 110.82 20.648C110.956 20.784 111.024 20.98 111.024 21.236V28.304C111.024 28.552 110.956 28.748 110.82 28.892C110.692 29.028 110.504 29.096 110.256 29.096C110.008 29.096 109.816 29.028 109.68 28.892C109.552 28.748 109.488 28.552 109.488 28.304V25.352H105.132V28.304C105.132 28.552 105.068 28.748 104.94 28.892C104.812 29.028 104.62 29.096 104.364 29.096ZM115.915 29.12C115.491 29.12 115.111 29.04 114.775 28.88C114.447 28.712 114.187 28.488 113.995 28.208C113.811 27.928 113.719 27.612 113.719 27.26C113.719 26.828 113.831 26.488 114.055 26.24C114.279 25.984 114.643 25.8 115.147 25.688C115.651 25.576 116.327 25.52 117.175 25.52H117.775V26.384H117.187C116.691 26.384 116.295 26.408 115.999 26.456C115.703 26.504 115.491 26.588 115.363 26.708C115.243 26.82 115.183 26.98 115.183 27.188C115.183 27.452 115.275 27.668 115.459 27.836C115.643 28.004 115.899 28.088 116.227 28.088C116.491 28.088 116.723 28.028 116.923 27.908C117.131 27.78 117.295 27.608 117.415 27.392C117.535 27.176 117.595 26.928 117.595 26.648V25.268C117.595 24.868 117.507 24.58 117.331 24.404C117.155 24.228 116.859 24.14 116.443 24.14C116.211 24.14 115.959 24.168 115.687 24.224C115.423 24.28 115.143 24.376 114.847 24.512C114.695 24.584 114.559 24.604 114.439 24.572C114.327 24.54 114.239 24.476 114.175 24.38C114.111 24.276 114.079 24.164 114.079 24.044C114.079 23.924 114.111 23.808 114.175 23.696C114.239 23.576 114.347 23.488 114.499 23.432C114.867 23.28 115.219 23.172 115.555 23.108C115.899 23.044 116.211 23.012 116.491 23.012C117.067 23.012 117.539 23.1 117.907 23.276C118.283 23.452 118.563 23.72 118.747 24.08C118.931 24.432 119.023 24.888 119.023 25.448V28.328C119.023 28.576 118.963 28.768 118.843 28.904C118.723 29.032 118.551 29.096 118.327 29.096C118.103 29.096 117.927 29.032 117.799 28.904C117.679 28.768 117.619 28.576 117.619 28.328V27.752H117.715C117.659 28.032 117.547 28.276 117.379 28.484C117.219 28.684 117.015 28.84 116.767 28.952C116.519 29.064 116.235 29.12 115.915 29.12ZM122.156 29C122.004 29 121.876 28.964 121.772 28.892C121.676 28.812 121.612 28.712 121.58 28.592C121.548 28.472 121.548 28.344 121.58 28.208C121.62 28.064 121.696 27.928 121.808 27.8L124.916 23.9V24.26H122.084C121.9 24.26 121.756 24.212 121.652 24.116C121.556 24.012 121.508 23.872 121.508 23.696C121.508 23.512 121.556 23.372 121.652 23.276C121.756 23.18 121.9 23.132 122.084 23.132H125.636C125.812 23.132 125.956 23.172 126.068 23.252C126.18 23.324 126.252 23.42 126.284 23.54C126.324 23.66 126.328 23.788 126.296 23.924C126.264 24.06 126.192 24.188 126.08 24.308L122.912 28.268V27.872H125.912C126.296 27.872 126.488 28.06 126.488 28.436C126.488 28.612 126.436 28.752 126.332 28.856C126.236 28.952 126.096 29 125.912 29H122.156ZM130.603 29.12C130.179 29.12 129.799 29.04 129.463 28.88C129.135 28.712 128.875 28.488 128.683 28.208C128.499 27.928 128.407 27.612 128.407 27.26C128.407 26.828 128.519 26.488 128.743 26.24C128.967 25.984 129.331 25.8 129.835 25.688C130.339 25.576 131.015 25.52 131.863 25.52H132.463V26.384H131.875C131.379 26.384 130.983 26.408 130.687 26.456C130.391 26.504 130.179 26.588 130.051 26.708C129.931 26.82 129.871 26.98 129.871 27.188C129.871 27.452 129.963 27.668 130.147 27.836C130.331 28.004 130.587 28.088 130.915 28.088C131.179 28.088 131.411 28.028 131.611 27.908C131.819 27.78 131.983 27.608 132.103 27.392C132.223 27.176 132.283 26.928 132.283 26.648V25.268C132.283 24.868 132.195 24.58 132.019 24.404C131.843 24.228 131.547 24.14 131.131 24.14C130.899 24.14 130.647 24.168 130.375 24.224C130.111 24.28 129.831 24.376 129.535 24.512C129.383 24.584 129.247 24.604 129.127 24.572C129.015 24.54 128.927 24.476 128.863 24.38C128.799 24.276 128.767 24.164 128.767 24.044C128.767 23.924 128.799 23.808 128.863 23.696C128.927 23.576 129.035 23.488 129.187 23.432C129.555 23.28 129.907 23.172 130.243 23.108C130.587 23.044 130.899 23.012 131.179 23.012C131.755 23.012 132.227 23.1 132.595 23.276C132.971 23.452 133.251 23.72 133.435 24.08C133.619 24.432 133.711 24.888 133.711 25.448V28.328C133.711 28.576 133.651 28.768 133.531 28.904C133.411 29.032 133.239 29.096 133.015 29.096C132.791 29.096 132.615 29.032 132.487 28.904C132.367 28.768 132.307 28.576 132.307 28.328V27.752H132.403C132.347 28.032 132.235 28.276 132.067 28.484C131.907 28.684 131.703 28.84 131.455 28.952C131.207 29.064 130.923 29.12 130.603 29.12ZM137.251 29.096C137.003 29.096 136.811 29.032 136.675 28.904C136.547 28.768 136.483 28.576 136.483 28.328V23.792C136.483 23.544 136.547 23.356 136.675 23.228C136.803 23.1 136.983 23.036 137.215 23.036C137.447 23.036 137.627 23.1 137.755 23.228C137.883 23.356 137.947 23.544 137.947 23.792V24.548H137.827C137.939 24.068 138.159 23.704 138.487 23.456C138.815 23.208 139.251 23.06 139.795 23.012C139.963 22.996 140.095 23.04 140.191 23.144C140.295 23.24 140.355 23.392 140.371 23.6C140.387 23.8 140.339 23.964 140.227 24.092C140.123 24.212 139.963 24.284 139.747 24.308L139.483 24.332C138.995 24.38 138.627 24.532 138.379 24.788C138.131 25.036 138.007 25.388 138.007 25.844V28.328C138.007 28.576 137.943 28.768 137.815 28.904C137.687 29.032 137.499 29.096 137.251 29.096ZM144.595 29.12C144.083 29.12 143.631 28.996 143.239 28.748C142.855 28.5 142.555 28.148 142.339 27.692C142.123 27.228 142.015 26.684 142.015 26.06C142.015 25.428 142.123 24.888 142.339 24.44C142.555 23.984 142.855 23.632 143.239 23.384C143.631 23.136 144.083 23.012 144.595 23.012C145.083 23.012 145.507 23.132 145.867 23.372C146.235 23.612 146.483 23.928 146.611 24.32H146.479V21.2C146.479 20.952 146.543 20.764 146.671 20.636C146.799 20.508 146.983 20.444 147.223 20.444C147.463 20.444 147.647 20.508 147.775 20.636C147.911 20.764 147.979 20.952 147.979 21.2V28.328C147.979 28.576 147.915 28.768 147.787 28.904C147.659 29.032 147.475 29.096 147.235 29.096C146.995 29.096 146.811 29.032 146.683 28.904C146.555 28.768 146.491 28.576 146.491 28.328V27.392L146.623 27.752C146.503 28.168 146.259 28.5 145.891 28.748C145.523 28.996 145.091 29.12 144.595 29.12ZM145.015 27.98C145.311 27.98 145.571 27.908 145.795 27.764C146.019 27.62 146.191 27.408 146.311 27.128C146.439 26.84 146.503 26.484 146.503 26.06C146.503 25.42 146.367 24.944 146.095 24.632C145.823 24.312 145.463 24.152 145.015 24.152C144.719 24.152 144.459 24.224 144.235 24.368C144.011 24.504 143.835 24.716 143.707 25.004C143.587 25.284 143.527 25.636 143.527 26.06C143.527 26.692 143.663 27.172 143.935 27.5C144.207 27.82 144.567 27.98 145.015 27.98ZM152.932 29.12C152.588 29.12 152.224 29.084 151.84 29.012C151.456 28.94 151.112 28.816 150.808 28.64C150.68 28.56 150.588 28.468 150.532 28.364C150.484 28.252 150.464 28.144 150.472 28.04C150.488 27.928 150.528 27.832 150.592 27.752C150.664 27.672 150.752 27.62 150.856 27.596C150.968 27.572 151.088 27.592 151.216 27.656C151.536 27.808 151.836 27.916 152.116 27.98C152.396 28.036 152.672 28.064 152.944 28.064C153.328 28.064 153.612 28 153.796 27.872C153.988 27.736 154.084 27.56 154.084 27.344C154.084 27.16 154.02 27.02 153.892 26.924C153.772 26.82 153.588 26.744 153.34 26.696L152.14 26.468C151.644 26.372 151.264 26.192 151 25.928C150.744 25.656 150.616 25.308 150.616 24.884C150.616 24.5 150.72 24.168 150.928 23.888C151.144 23.608 151.44 23.392 151.816 23.24C152.192 23.088 152.624 23.012 153.112 23.012C153.464 23.012 153.792 23.052 154.096 23.132C154.408 23.204 154.708 23.32 154.996 23.48C155.116 23.544 155.196 23.628 155.236 23.732C155.284 23.836 155.296 23.944 155.272 24.056C155.248 24.16 155.2 24.256 155.128 24.344C155.056 24.424 154.964 24.476 154.852 24.5C154.748 24.516 154.628 24.492 154.492 24.428C154.244 24.3 154.004 24.208 153.772 24.152C153.548 24.096 153.332 24.068 153.124 24.068C152.732 24.068 152.44 24.136 152.248 24.272C152.064 24.408 151.972 24.588 151.972 24.812C151.972 24.98 152.028 25.12 152.14 25.232C152.252 25.344 152.424 25.42 152.656 25.46L153.856 25.688C154.376 25.784 154.768 25.96 155.032 26.216C155.304 26.472 155.44 26.816 155.44 27.248C155.44 27.832 155.212 28.292 154.756 28.628C154.3 28.956 153.692 29.12 152.932 29.12Z" fill="white"/>
</svg>
