<svg width="60" height="71" viewBox="0 0 60 71" fill="none" xmlns="http://www.w3.org/2000/svg">
<path d="M1.77192 46.1036L6.62019 38.4244L9.71463 33.5261L17.2531 21.5566C18.2786 19.9316 19.7759 18.688 21.5279 18.0059C23.2799 17.3239 25.1955 17.2389 26.9972 17.7632L27.0209 17.7355L27.6482 17.9793H27.6868H27.7135C28.0329 18.1047 28.3455 18.2479 28.6499 18.4083V18.4083C30.1275 19.1946 31.3602 20.3997 32.2051 21.8837C33.0163 23.306 33.4444 24.9285 33.4447 26.5814C33.4451 28.3846 32.9277 30.147 31.9584 31.6433L30.3324 34.1804L26.2897 40.48C25.565 41.5997 25.178 42.9181 25.1779 44.2671C25.1785 45.4679 25.4807 46.6477 26.0548 47.6901C26.6443 48.7631 27.5046 49.6488 28.5429 50.2519C28.6796 50.3321 28.8104 50.4031 28.9412 50.4679C30.3776 51.1784 32.0128 51.3263 33.5459 50.8845C35.079 50.4428 36.4069 49.441 37.2852 48.0635L48.3551 30.6865L48.3908 30.7482L53.9643 21.9177C55.395 19.6874 56.1621 17.0694 56.17 14.3897C56.1614 11.7086 55.4124 9.08633 54.0119 6.8339C52.8166 4.8788 51.1619 3.27162 49.2035 2.16363C47.2451 1.05564 45.0474 0.483264 42.8172 0.500373H8.36211C7.33247 0.500372 6.31292 0.711 5.3617 1.12022C4.41047 1.52945 3.54621 2.12925 2.81828 2.88536C2.09036 3.64148 1.51302 4.53909 1.11927 5.52693C0.725512 6.51478 0.523048 7.57349 0.523438 8.64259V48.0851L1.77192 46.1036Z" fill="white"/>
<path d="M35.913 52.4093C34.658 53.1011 33.2605 53.4674 31.8397 53.4771C30.4189 53.4867 29.0169 53.1395 27.7533 52.4649C26.282 51.6852 25.0535 50.4888 24.2099 49.0142C23.3986 47.5964 22.9694 45.9781 22.9674 44.3289C22.9686 42.5259 23.4859 40.764 24.4537 39.267L30.1254 30.4303C30.8477 29.3044 31.2306 27.9805 31.2252 26.6277C31.2246 25.3589 30.8872 24.1147 30.2502 23.0319C29.6685 22.052 28.8585 21.2401 27.8948 20.6711C26.9312 20.1021 25.845 19.7943 24.7366 19.7761C23.6282 19.758 22.5332 20.0301 21.5527 20.5673C20.5723 21.1045 19.738 21.8895 19.1269 22.8498L0.586925 51.9464V62.0393C0.584148 63.7969 1.10313 65.5127 2.07321 66.953C3.01769 68.3581 4.34311 69.4399 5.88107 70.0611C6.8361 70.4478 7.85236 70.6457 8.87743 70.6445H45.1428C45.9727 70.6463 46.8013 70.573 47.6189 70.4253C50.1898 69.9682 52.5814 68.7582 54.5123 66.9376C55.9737 65.5541 57.1421 63.8704 57.9435 61.9932C58.7448 60.1159 59.1616 58.0863 59.1674 56.0329C59.1631 53.21 58.3577 50.4509 56.8518 48.1006L57.7197 47.508L56.8518 48.1006L56.0521 46.8351L48.3888 34.6897L39.1412 49.3444C38.3306 50.6319 37.2203 51.6861 35.913 52.4093Z" fill="white"/>
</svg>
