<svg width="226" height="44" viewBox="0 0 226 44" fill="none" xmlns="http://www.w3.org/2000/svg">
<path d="M134.48 6.19563C134.687 6.68339 134.984 7.12684 135.355 7.50222C135.727 7.87999 136.167 8.1812 136.653 8.38907C137.152 8.60086 137.687 8.70996 138.228 8.70996C138.77 8.70996 139.305 8.60086 139.804 8.38907C140.288 8.18022 140.728 7.8791 141.099 7.50222C141.471 7.12696 141.769 6.68353 141.977 6.19563C142.187 5.69206 142.295 5.15127 142.295 4.60498C142.295 4.05869 142.187 3.5179 141.977 3.01433C141.769 2.52589 141.47 2.08155 141.099 1.70458C140.727 1.32962 140.287 1.0297 139.804 0.820892C139.305 0.609099 138.77 0.5 138.228 0.5C137.687 0.5 137.152 0.609099 136.653 0.820892C136.168 1.02887 135.728 1.32886 135.355 1.70458C134.984 2.08168 134.687 2.52604 134.48 3.01433C134.27 3.5179 134.162 4.05869 134.162 4.60498C134.162 5.15127 134.27 5.69206 134.48 6.19563ZM134.639 12.5361V33.1924H141.858V12.5361H134.639ZM108.551 33.1924H115.77V22.1463C115.77 20.7765 116.097 19.7245 116.749 18.9902C117.401 18.2559 118.339 17.8866 119.563 17.8824C119.997 17.8789 120.429 17.9472 120.842 18.0844C121.249 18.2227 121.618 18.4576 121.917 18.7693C122.312 19.188 122.582 19.711 122.696 20.2779C122.859 21.0919 122.933 21.9218 122.915 22.7522V33.1829H130.134V20.0664C130.148 19.0768 130.043 18.089 129.821 17.125C129.607 16.2643 129.197 15.4658 128.624 14.7927C127.914 13.9375 127.021 13.2556 126.013 12.7981C124.847 12.3004 123.589 12.0604 122.324 12.0943C121.11 12.07 119.904 12.2844 118.772 12.7255C117.761 13.1463 116.764 13.9574 115.78 15.1588V12.5424H108.551V33.1924ZM96.7983 14.5907C95.9927 13.7111 95.0103 13.0153 93.9168 12.5499C92.8233 12.0845 91.6439 11.8603 90.4576 11.8923C89.072 11.8725 87.6979 12.1495 86.4261 12.7049C85.1542 13.2604 84.0134 14.0816 83.0789 15.1146C82.1609 16.1253 81.4425 17.3036 80.9623 18.5862C80.4557 19.9296 80.1992 21.3558 80.2056 22.7932C80.1903 24.2929 80.4544 25.7821 80.9841 27.1833C81.4759 28.4825 82.214 29.6725 83.1571 30.6865C84.0798 31.6744 85.1926 32.4616 86.4275 32.9999C87.7254 33.5597 89.1244 33.8413 90.5358 33.8267C93.1684 33.8267 95.2528 32.8473 96.7889 30.8885V33.1829H104.049V12.5361H96.7983V14.5907ZM88.0439 21.0132C88.28 20.4677 88.6115 19.9695 89.0225 19.5425C89.4415 19.1091 89.9437 18.7666 90.4983 18.5357C91.0858 18.29 91.7164 18.1666 92.3523 18.1728C92.9759 18.1693 93.5937 18.2928 94.1689 18.5357C94.7231 18.7673 95.2251 19.1098 95.6446 19.5425C96.0618 19.982 96.3985 20.4928 96.6389 21.0511C96.8925 21.6284 97.0225 22.2532 97.0203 22.8848C97.0238 23.5093 96.8937 24.1272 96.6389 24.6963C96.396 25.2476 96.0595 25.7517 95.6446 26.186C95.2251 26.6187 94.7231 26.9612 94.1689 27.1928C93.5933 27.4344 92.9757 27.5578 92.3523 27.5557C91.7166 27.5604 91.0862 27.437 90.4983 27.1928C89.9437 26.9619 89.4415 26.6194 89.0225 26.186C88.1554 25.2782 87.6751 24.0637 87.6844 22.8027C87.6795 22.1874 87.802 21.5779 88.0439 21.0132ZM55.4244 43.5H63.5191L79.9524 12.5361H71.6576L66.3424 23.1246L60.8772 12.5361H52.5105L62.4061 30.374L55.4244 43.5ZM42.8181 14.5907C42.0129 13.7106 41.0306 13.0145 39.937 12.5491C38.8434 12.0836 37.6638 11.8597 36.4774 11.8923C35.0918 11.8725 33.7177 12.1495 32.4458 12.7049C31.174 13.2604 30.0332 14.0816 29.0987 15.1146C28.1816 16.1254 27.4642 17.3037 26.9852 18.5862C26.4763 19.9291 26.2187 21.3555 26.2254 22.7932C26.2101 24.2929 26.4742 25.7821 27.0039 27.1833C27.5016 28.4832 28.2449 29.673 29.1925 30.6865C30.1163 31.6745 31.2302 32.4617 32.466 32.9999C33.7638 33.5604 35.1629 33.842 36.5743 33.8267C39.2069 33.8267 41.2913 32.8473 42.8275 30.8885V33.1829H50.0874V12.5361H42.8181V14.5907ZM34.0856 21.0132C34.3194 20.4672 34.65 19.9688 35.0611 19.5425C35.4801 19.1091 35.9822 18.7666 36.5368 18.5357C37.1244 18.2903 37.755 18.1668 38.3909 18.1728C39.0144 18.169 39.6323 18.2924 40.2074 18.5357C40.762 18.7666 41.2642 19.1091 41.6832 19.5425C42.1014 19.9819 42.4391 20.4926 42.6805 21.0511C42.9332 21.6286 43.0621 22.2535 43.0589 22.8848C43.0633 23.5091 42.9343 24.127 42.6805 24.6963C42.4366 25.2477 42.099 25.7518 41.6832 26.186C41.2642 26.6194 40.762 26.9619 40.2074 27.1928C39.6318 27.4344 39.0143 27.5578 38.3909 27.5557C37.7551 27.5601 37.1249 27.4367 36.5368 27.1928C35.9822 26.9619 35.4801 26.6194 35.0611 26.186C34.1965 25.2768 33.7176 24.0629 33.726 22.8027C33.7198 22.1873 33.8423 21.5775 34.0856 21.0132ZM0.5 33.1924H13.0657C14.5242 33.2119 15.9781 33.0217 17.3835 32.6275C18.5688 32.2959 19.6721 31.7175 20.6226 30.9295C21.5155 30.1758 22.2257 29.2258 22.6986 28.1522C23.2092 26.9573 23.4608 25.666 23.4365 24.3649C23.4438 23.4954 23.3387 22.6286 23.1239 21.7865C22.9201 21.0013 22.563 20.2652 22.0733 19.6214C21.5485 18.9492 20.8917 18.3937 20.1442 17.9897C19.2527 17.5074 18.2898 17.1738 17.2928 17.0019C18.3343 16.3861 19.197 15.5044 19.7941 14.4455C20.3749 13.2715 20.6564 11.9698 20.6132 10.6583C20.6132 8.13343 19.8951 6.19984 18.459 4.85747C17.0229 3.5151 14.9187 2.84286 12.1465 2.84075H0.5V33.1924ZM8.31642 8.87194H9.75464C12.1996 8.87194 13.4221 9.85137 13.4221 11.8102C13.4221 13.7691 12.1996 14.7495 9.75464 14.7516H8.31642V8.87194ZM8.31642 20.6282H10.0329C12.0006 20.6282 13.4096 20.8838 14.26 21.3951C15.1105 21.9032 15.5388 22.7238 15.5388 23.8505C15.5388 24.9772 15.1105 25.7978 14.26 26.3059C13.4096 26.814 11.9995 27.0728 10.0329 27.0728H8.31642V20.6282Z" fill="white"/>
<path d="M200.969 43.5H209.067L225.5 12.5361H217.202L211.887 23.1246L206.425 12.5361H198.058L207.947 30.374L200.969 43.5ZM188.366 14.5907C187.56 13.7108 186.577 13.0149 185.483 12.5495C184.389 12.0842 183.209 11.8601 182.022 11.8923C180.593 11.8734 179.177 12.1685 177.873 12.757C176.653 13.3164 175.556 14.1182 174.649 15.1146C173.732 16.1254 173.015 17.3037 172.536 18.5862C172.028 19.9292 171.771 21.3557 171.779 22.7932C171.763 24.2927 172.026 25.7819 172.555 27.1833C173.051 28.4837 173.795 29.6737 174.743 30.6865C175.665 31.6751 176.778 32.4624 178.014 32.9999C179.311 33.5604 180.711 33.842 182.122 33.8267C184.755 33.8267 186.839 32.8473 188.375 30.8885V33.1829H195.632V12.5361H188.366V14.5907ZM179.63 21.0132C179.864 20.4672 180.194 19.9688 180.606 19.5425C181.025 19.1091 181.527 18.7666 182.081 18.5357C182.67 18.29 183.302 18.1666 183.939 18.1728C184.561 18.1693 185.178 18.2928 185.752 18.5357C186.307 18.7666 186.809 19.1091 187.228 19.5425C187.646 19.9819 187.984 20.4926 188.225 21.0511C188.478 21.6286 188.607 22.2535 188.603 22.8848C188.608 23.509 188.479 24.127 188.225 24.6963C187.981 25.2477 187.644 25.7518 187.228 26.186C186.809 26.6194 186.307 26.9619 185.752 27.1927C185.177 27.434 184.561 27.5574 183.939 27.5557C183.302 27.5604 182.67 27.437 182.081 27.1927C181.527 26.9619 181.025 26.6194 180.606 26.186C179.741 25.2768 179.262 24.0629 179.271 22.8027C179.264 22.1873 179.387 21.5775 179.63 21.0132ZM154.899 23.1246H159.526C162.903 23.1246 165.489 22.2388 167.283 20.4672C169.078 18.6956 169.975 16.1992 169.975 12.9779C169.975 9.75879 169.078 7.26341 167.283 5.49182C165.489 3.72023 162.903 2.83654 159.526 2.84075H147.083V33.1987H154.899V23.1246ZM154.899 9.19386H157.491C160.363 9.19386 161.799 10.4563 161.799 12.9811C161.799 15.5059 160.363 16.7684 157.491 16.7684H154.899V9.19386Z" fill="white"/>
</svg>
