<svg width="192" height="31" viewBox="0 0 192 31" fill="none" xmlns="http://www.w3.org/2000/svg">
<path d="M8.072 15.232H3.016V24H0.456V2.88H8.456C10.6107 2.88 12.3387 3.43467 13.64 4.544C14.9413 5.65333 15.592 7.15733 15.592 9.056C15.592 10.5493 15.176 11.808 14.344 12.832C13.512 13.856 12.3707 14.56 10.92 14.944L16.872 24H13.832L8.072 15.232ZM3.016 12.832H8.424C11.4107 12.832 12.904 11.5733 12.904 9.056C12.904 6.53867 11.4107 5.28 8.424 5.28H3.016V12.832ZM33.4173 22.144C33.8439 22.144 34.2706 22.0907 34.6973 21.984L34.5373 24C33.9399 24.2133 33.2999 24.32 32.6173 24.32C31.7853 24.32 31.1239 24.1387 30.6333 23.776C30.1639 23.4133 29.8653 22.8053 29.7373 21.952C29.2466 22.6987 28.5213 23.2853 27.5613 23.712C26.6226 24.1173 25.6306 24.32 24.5853 24.32C23.0066 24.32 21.7053 23.9573 20.6813 23.232C19.6573 22.4853 19.1453 21.4187 19.1453 20.032C19.1453 18.816 19.6786 17.7707 20.7453 16.896C21.8119 16 23.3586 15.3813 25.3853 15.04L29.6413 14.336V13.44C29.6413 12.3733 29.3106 11.52 28.6493 10.88C27.9879 10.24 27.0706 9.92 25.8973 9.92C24.8306 9.92 23.9026 10.176 23.1133 10.688C22.3453 11.2 21.7479 11.9573 21.3213 12.96L19.4333 11.584C19.8599 10.3893 20.6493 9.44 21.8013 8.736C22.9746 8.032 24.3399 7.68 25.8973 7.68C27.7959 7.68 29.3213 8.13867 30.4733 9.056C31.6253 9.97333 32.2013 11.328 32.2013 13.12V20.992C32.2013 21.376 32.2973 21.664 32.4893 21.856C32.6813 22.048 32.9906 22.144 33.4173 22.144ZM24.7133 22.08C26.0573 22.08 27.2093 21.76 28.1693 21.12C29.1506 20.48 29.6413 19.648 29.6413 18.624V16.416L26.0573 17.088C24.6279 17.344 23.5613 17.7173 22.8573 18.208C22.1533 18.6773 21.8013 19.2853 21.8013 20.032C21.8013 20.6933 22.0573 21.2053 22.5693 21.568C23.0813 21.9093 23.7959 22.08 24.7133 22.08ZM45.3343 7.68C47.5743 7.68 49.3449 8.42667 50.6463 9.92C51.9689 11.392 52.6303 13.4187 52.6303 16C52.6303 18.5813 51.9689 20.6187 50.6463 22.112C49.3449 23.584 47.5743 24.32 45.3343 24.32C44.1609 24.32 43.1049 24.064 42.1663 23.552C41.2489 23.04 40.5343 22.3573 40.0223 21.504V30.72H37.4623V8H39.7023L39.8623 10.784C40.3316 9.84533 41.0463 9.09867 42.0063 8.544C42.9876 7.968 44.0969 7.68 45.3343 7.68ZM45.0463 22.08C46.6036 22.08 47.8303 21.536 48.7263 20.448C49.6223 19.3387 50.0703 17.856 50.0703 16C50.0703 14.144 49.6223 12.672 48.7263 11.584C47.8303 10.4747 46.6036 9.92 45.0463 9.92C43.5103 9.92 42.2836 10.4533 41.3663 11.52C40.4703 12.5867 40.0223 14.016 40.0223 15.808V16.192C40.0223 17.984 40.4703 19.4133 41.3663 20.48C42.2836 21.5467 43.5103 22.08 45.0463 22.08ZM57.9385 4.928C57.3625 4.928 56.8932 4.75733 56.5305 4.416C56.1892 4.05333 56.0185 3.584 56.0185 3.008C56.0185 2.432 56.1892 1.97333 56.5305 1.632C56.8932 1.26933 57.3625 1.088 57.9385 1.088C58.5145 1.088 58.9732 1.26933 59.3145 1.632C59.6772 1.97333 59.8585 2.432 59.8585 3.008C59.8585 3.584 59.6772 4.05333 59.3145 4.416C58.9732 4.75733 58.5145 4.928 57.9385 4.928ZM59.2185 24H56.6585V8H59.2185V24ZM78.4065 0.639999V24H76.1665L76.0065 21.216C75.5372 22.1547 74.8118 22.912 73.8305 23.488C72.8705 24.0427 71.7718 24.32 70.5345 24.32C68.2945 24.32 66.5132 23.584 65.1905 22.112C63.8892 20.6187 63.2385 18.5813 63.2385 16C63.2385 13.4187 63.8892 11.392 65.1905 9.92C66.5132 8.42667 68.2945 7.68 70.5345 7.68C71.7078 7.68 72.7532 7.936 73.6705 8.448C74.6092 8.96 75.3345 9.64267 75.8465 10.496V0.639999H78.4065ZM70.8225 22.08C72.3585 22.08 73.5745 21.5467 74.4705 20.48C75.3878 19.4133 75.8465 17.984 75.8465 16.192V15.808C75.8465 14.016 75.3878 12.5867 74.4705 11.52C73.5745 10.4533 72.3585 9.92 70.8225 9.92C69.2652 9.92 68.0385 10.4747 67.1425 11.584C66.2465 12.672 65.7985 14.144 65.7985 16C65.7985 17.856 66.2465 19.3387 67.1425 20.448C68.0385 21.536 69.2652 22.08 70.8225 22.08ZM91.1745 2.88C93.3078 2.88 95.0252 3.46667 96.3265 4.64C97.6278 5.792 98.2785 7.34933 98.2785 9.312C98.2785 11.2747 97.6278 12.8427 96.3265 14.016C95.0252 15.168 93.3078 15.744 91.1745 15.744H86.2785V24H83.7185V2.88H91.1745ZM90.7905 13.344C92.4332 13.344 93.6385 13.0133 94.4065 12.352C95.1958 11.6693 95.5905 10.656 95.5905 9.312C95.5905 7.968 95.1958 6.96533 94.4065 6.304C93.6385 5.62133 92.4332 5.28 90.7905 5.28H86.2785V13.344H90.7905ZM114.93 22.144C115.356 22.144 115.783 22.0907 116.21 21.984L116.05 24C115.452 24.2133 114.812 24.32 114.13 24.32C113.298 24.32 112.636 24.1387 112.146 23.776C111.676 23.4133 111.378 22.8053 111.25 21.952C110.759 22.6987 110.034 23.2853 109.074 23.712C108.135 24.1173 107.143 24.32 106.098 24.32C104.519 24.32 103.218 23.9573 102.194 23.232C101.17 22.4853 100.658 21.4187 100.658 20.032C100.658 18.816 101.191 17.7707 102.258 16.896C103.324 16 104.871 15.3813 106.898 15.04L111.154 14.336V13.44C111.154 12.3733 110.823 11.52 110.162 10.88C109.5 10.24 108.583 9.92 107.41 9.92C106.343 9.92 105.415 10.176 104.626 10.688C103.858 11.2 103.26 11.9573 102.834 12.96L100.946 11.584C101.372 10.3893 102.162 9.44 103.314 8.736C104.487 8.032 105.852 7.68 107.41 7.68C109.308 7.68 110.834 8.13867 111.986 9.056C113.138 9.97333 113.714 11.328 113.714 13.12V20.992C113.714 21.376 113.81 21.664 114.002 21.856C114.194 22.048 114.503 22.144 114.93 22.144ZM106.226 22.08C107.57 22.08 108.722 21.76 109.682 21.12C110.663 20.48 111.154 19.648 111.154 18.624V16.416L107.57 17.088C106.14 17.344 105.074 17.7173 104.37 18.208C103.666 18.6773 103.314 19.2853 103.314 20.032C103.314 20.6933 103.57 21.2053 104.082 21.568C104.594 21.9093 105.308 22.08 106.226 22.08ZM124.415 24.32C122.879 24.32 121.492 24.0213 120.255 23.424C119.017 22.8053 118.111 21.8987 117.535 20.704L119.615 19.264C119.977 20.2027 120.607 20.9067 121.503 21.376C122.399 21.8453 123.455 22.08 124.671 22.08C125.929 22.08 126.889 21.856 127.551 21.408C128.212 20.96 128.543 20.3947 128.543 19.712C128.543 19.0933 128.233 18.6027 127.615 18.24C126.996 17.856 125.908 17.5253 124.351 17.248C122.815 16.9707 121.599 16.64 120.703 16.256C119.807 15.8507 119.156 15.3493 118.751 14.752C118.345 14.1333 118.143 13.376 118.143 12.48C118.143 11.6053 118.399 10.8053 118.911 10.08C119.423 9.35467 120.159 8.77867 121.119 8.352C122.079 7.904 123.188 7.68 124.447 7.68C126.153 7.68 127.519 8 128.543 8.64C129.588 9.25867 130.335 10.2187 130.783 11.52L128.607 12.8C128.265 11.776 127.743 11.04 127.039 10.592C126.356 10.144 125.492 9.92 124.447 9.92C123.401 9.92 122.516 10.1547 121.791 10.624C121.065 11.0933 120.703 11.6373 120.703 12.256C120.703 12.96 121.012 13.504 121.631 13.888C122.271 14.272 123.401 14.6027 125.023 14.88C127.241 15.2427 128.809 15.7867 129.727 16.512C130.644 17.2373 131.103 18.2613 131.103 19.584C131.103 20.5013 130.825 21.3227 130.271 22.048C129.737 22.752 128.959 23.3067 127.935 23.712C126.932 24.1173 125.759 24.32 124.415 24.32ZM140.33 24.32C138.794 24.32 137.407 24.0213 136.17 23.424C134.932 22.8053 134.026 21.8987 133.45 20.704L135.53 19.264C135.892 20.2027 136.522 20.9067 137.418 21.376C138.314 21.8453 139.37 22.08 140.586 22.08C141.844 22.08 142.804 21.856 143.466 21.408C144.127 20.96 144.458 20.3947 144.458 19.712C144.458 19.0933 144.148 18.6027 143.53 18.24C142.911 17.856 141.823 17.5253 140.266 17.248C138.73 16.9707 137.514 16.64 136.618 16.256C135.722 15.8507 135.071 15.3493 134.666 14.752C134.26 14.1333 134.058 13.376 134.058 12.48C134.058 11.6053 134.314 10.8053 134.826 10.08C135.338 9.35467 136.074 8.77867 137.034 8.352C137.994 7.904 139.103 7.68 140.362 7.68C142.068 7.68 143.434 8 144.458 8.64C145.503 9.25867 146.25 10.2187 146.698 11.52L144.522 12.8C144.18 11.776 143.658 11.04 142.954 10.592C142.271 10.144 141.407 9.92 140.362 9.92C139.316 9.92 138.431 10.1547 137.706 10.624C136.98 11.0933 136.618 11.6373 136.618 12.256C136.618 12.96 136.927 13.504 137.546 13.888C138.186 14.272 139.316 14.6027 140.938 14.88C143.156 15.2427 144.724 15.7867 145.642 16.512C146.559 17.2373 147.018 18.2613 147.018 19.584C147.018 20.5013 146.74 21.3227 146.186 22.048C145.652 22.752 144.874 23.3067 143.85 23.712C142.847 24.1173 141.674 24.32 140.33 24.32ZM152.085 20.16C152.703 20.16 153.205 20.352 153.589 20.736C153.973 21.12 154.165 21.6213 154.165 22.24C154.165 22.8587 153.973 23.36 153.589 23.744C153.205 24.128 152.703 24.32 152.085 24.32C151.466 24.32 150.965 24.128 150.581 23.744C150.197 23.36 150.005 22.8587 150.005 22.24C150.005 21.6213 150.197 21.12 150.581 20.736C150.965 20.352 151.466 20.16 152.085 20.16ZM166.217 7.68C168.457 7.68 170.227 8.42667 171.529 9.92C172.851 11.392 173.513 13.4187 173.513 16C173.513 18.5813 172.851 20.6187 171.529 22.112C170.227 23.584 168.457 24.32 166.217 24.32C165.043 24.32 163.987 24.064 163.049 23.552C162.131 23.04 161.417 22.3573 160.905 21.504V30.72H158.345V8H160.585L160.745 10.784C161.214 9.84533 161.929 9.09867 162.889 8.544C163.87 7.968 164.979 7.68 166.217 7.68ZM165.929 22.08C167.486 22.08 168.713 21.536 169.609 20.448C170.505 19.3387 170.953 17.856 170.953 16C170.953 14.144 170.505 12.672 169.609 11.584C168.713 10.4747 167.486 9.92 165.929 9.92C164.393 9.92 163.166 10.4533 162.249 11.52C161.353 12.5867 160.905 14.016 160.905 15.808V16.192C160.905 17.984 161.353 19.4133 162.249 20.48C163.166 21.5467 164.393 22.08 165.929 22.08ZM185.317 7.68C187.13 7.68 188.624 8.20267 189.797 9.248C190.97 10.2933 191.557 11.7973 191.557 13.76V24H188.997V14.656C188.997 12.992 188.634 11.7867 187.909 11.04C187.205 10.2933 186.256 9.92 185.061 9.92C184.229 9.92 183.429 10.112 182.661 10.496C181.914 10.88 181.296 11.4987 180.805 12.352C180.336 13.184 180.101 14.24 180.101 15.52V24H177.541V0.639999H180.101V10.4C180.634 9.48267 181.349 8.8 182.245 8.352C183.162 7.904 184.186 7.68 185.317 7.68Z" fill="white"/>
</svg>
