<svg width="104" height="104" viewBox="0 0 104 104" fill="none" xmlns="http://www.w3.org/2000/svg">
<path d="M65.7599 23.0839H80.5025V37.8265H85.1581V23.0839C85.1581 20.5233 83.0631 18.4283 80.5025 18.4283H65.7599V23.0839Z" fill="#FF7043"/>
<path d="M23.0839 37.8265V23.0839H37.8265V18.4283H23.0839C20.5233 18.4283 18.4283 20.5233 18.4283 23.0839V37.8265H23.0839Z" fill="#FF7043"/>
<path d="M80.5025 65.7599V80.5025H65.7599V85.1581H80.5025C83.0631 85.1581 85.1581 83.0631 85.1581 80.5025V65.7599H80.5025Z" fill="#FF7043"/>
<path d="M37.8265 80.5025H23.0839V65.7599H18.4283V80.5025C18.4283 83.0631 20.5233 85.1581 23.0839 85.1581H37.8265V80.5025Z" fill="#FF7043"/>
<path d="M13.1908 49.4654H2.32778C1.0475 49.4654 0 50.5129 0 51.7932C0 53.0735 1.0475 54.121 2.32778 54.121H13.1908V49.4654Z" fill="#FF7043"/>
<path d="M54.121 13.1908V2.32778C54.121 1.0475 53.0735 0 51.7932 0C50.5129 0 49.4654 1.0475 49.4654 2.32778V13.1908H54.121Z" fill="#FF7043"/>
<path d="M49.4654 90.3956V101.259C49.4654 102.539 50.5129 103.586 51.7932 103.586C53.0735 103.586 54.121 102.539 54.121 101.259V90.3956H49.4654Z" fill="#FF7043"/>
<path d="M101.259 49.4654H90.3956V54.121H101.259C102.539 54.121 103.586 53.0735 103.586 51.7932C103.586 50.5129 102.539 49.4654 101.259 49.4654Z" fill="#FF7043"/>
<path d="M51.3206 29.7536C51.7481 29.7536 52.195 29.7536 52.6224 29.7536C53.3025 29.967 53.9242 30.2581 54.3906 30.8014C55.4592 32.0433 55.4981 34.0226 54.0603 35.3421C52.8362 36.4675 53.3025 38.4468 54.9152 38.8543C56.4307 39.2424 57.8296 39.8245 59.1897 40.5813C60.6081 41.3769 62.2014 40.4066 62.2402 38.7572C62.2402 38.5632 62.2402 38.3498 62.2402 38.1557C62.2791 36.5063 63.4643 35.0898 65.0964 34.7599C66.7479 34.4106 68.4383 35.2838 69.1184 36.8168C69.779 38.3304 69.3127 40.1544 68.0109 41.1246C67.2142 41.7261 66.301 41.862 65.3296 41.862C63.6974 41.8426 62.6871 43.5113 63.5031 44.9279C64.2609 46.2474 64.8632 47.6251 65.213 49.0998C65.3878 49.876 65.893 50.4387 66.6896 50.6134C67.5251 50.788 68.2829 50.6522 68.9046 49.9536C70.1481 48.5565 72.13 48.5371 73.4706 49.8566C73.937 50.3223 74.1701 50.9239 74.3839 51.5254C74.3839 51.8941 74.3839 52.2822 74.3839 52.6509C74.3061 52.8255 74.2478 53.0001 74.1701 53.1748C73.3152 55.3869 70.459 55.8914 68.8852 54.1256C67.7971 52.9031 65.7959 53.2718 65.2907 54.8436C64.8244 56.3765 64.2803 57.8707 63.4643 59.2678C62.998 60.0634 63.2117 60.956 63.8335 61.6351C64.4164 62.2561 65.1353 62.2367 65.893 62.2561C67.4474 62.2755 68.8075 63.2845 69.2738 64.7593C69.7401 66.2534 69.2544 67.8058 68.0109 68.7178C66.6896 69.688 65.077 69.7074 63.7752 68.776C62.6482 67.9804 62.2208 66.8549 62.2402 65.4966C62.2596 63.6144 60.6081 62.6636 58.9954 63.6144C57.7908 64.3324 56.5084 64.8369 55.1678 65.1862C54.3323 65.3996 53.6911 65.8459 53.4968 66.7191C53.2831 67.5923 53.4968 68.3491 54.2157 68.9894C55.3232 69.9597 55.4981 71.6867 54.7209 72.9285C54.2351 73.7047 53.4774 74.0928 52.6613 74.3839C52.2921 74.3839 51.9035 74.3839 51.5344 74.3839C51.4178 74.3451 51.2818 74.2869 51.1652 74.2481C49.98 73.86 49.2222 73.045 48.9696 71.8225C48.7171 70.6388 49.1251 69.6298 50.0189 68.8536C50.6989 68.2521 50.7766 67.4953 50.6212 66.6997C50.4657 65.9235 49.9217 65.3996 49.1639 65.2444C47.629 64.9145 46.2106 64.2936 44.8505 63.498C44.0345 63.0323 43.1213 63.2069 42.4606 63.8667C41.8778 64.4488 41.8583 65.1668 41.8583 65.9235C41.8583 67.4371 40.8674 68.7566 39.4296 69.2417C37.9918 69.7268 36.3791 69.2611 35.427 68.058C34.5138 66.9132 34.3973 65.2056 35.1745 63.9637C35.9711 62.683 37.1369 62.1785 38.633 62.1979C40.4205 62.2367 41.392 60.5679 40.5177 59.0349C39.7988 57.7736 39.2353 56.4735 38.905 55.057C38.633 53.951 37.8946 53.427 36.7483 53.4076C36.0877 53.4076 35.6408 53.7375 35.2133 54.1838C33.9698 55.4451 32.1434 55.5421 30.8027 54.3973C30.2393 53.9316 29.9673 53.2912 29.7535 52.6315C29.7535 52.2046 29.7535 51.7583 29.7535 51.3314C30.0256 50.6716 30.2976 50.0119 30.8999 49.5655C32.26 48.4983 34.1058 48.6147 35.3493 50.0313C36.1848 50.9627 38.3415 50.8851 38.8078 49.2939C39.2742 47.7027 39.8765 46.2086 40.6731 44.7532C41.3143 43.589 40.576 42.2112 39.2742 41.9202C38.9438 41.8426 38.6135 41.862 38.2832 41.862C36.0682 41.8426 34.3973 39.8827 34.7276 37.69C34.9802 36.0406 36.3985 34.7793 38.1667 34.6241C39.6045 34.5077 41.1977 35.5943 41.7223 37.0303C41.936 37.6124 41.9166 38.1945 41.936 38.7961C41.9749 40.3484 43.5099 41.338 44.8699 40.6201C46.3078 39.8439 47.8038 39.223 49.3777 38.7767C50.1937 38.5438 50.66 37.8258 50.7377 36.972C50.796 36.2153 50.4852 35.6719 49.9606 35.1674C48.6005 33.8479 48.6393 31.7328 49.98 30.5103C50.2909 30.1611 50.8155 29.967 51.3206 29.7536Z" fill="white"/>
</svg>
